<?xml version="1.0" encoding="UTF-8"?>
<!DOCTYPE svg PUBLIC "-//W3C//DTD SVG 1.1//EN" "http://www.w3.org/Graphics/SVG/1.1/DTD/svg11.dtd">
<svg version="1.1" xmlns="http://www.w3.org/2000/svg" xmlns:xlink="http://www.w3.org/1999/xlink" x="0" y="0" width="664" height="775" viewBox="0, 0, 664, 775">
  <defs>
    <clipPath id="Clip_1">
      <path d="M0.06,0.028 L663.615,0.028 L663.615,774.94 L0.06,774.94 z"/>
    </clipPath>
  </defs>
  <g id="Layer_1">
    <g clip-path="url(#Clip_1)">
      <path d="M124.366,245.144 C100.247,227.342 98.28,184.035 115.185,157.173 C111.774,155.639 108.306,154.274 105.015,152.566 C85.629,142.5 80.067,122.716 91.535,104.128 C100.838,89.048 114.473,78.937 130.132,71.224 C140.476,66.13 151.274,62.341 162.511,59.881 C165.569,59.212 168.003,57.942 170.402,56.004 C203.152,29.541 239.552,10.486 281.356,3.304 C319.255,-3.207 356.655,0.205 393.29,11.596 C434.829,24.511 471.269,45.917 499.497,79.39 C531.098,116.865 545.448,160.276 540.153,209.462 C538.616,223.741 534.884,237.566 528.465,250.517 C527.32,252.826 527.426,254.71 528.274,257.083 C532.096,267.772 532.122,278.705 528.992,289.499 C525.046,303.104 513.703,311.558 499.005,311.143 C493.183,310.979 491.235,313.004 489.405,318.041 C479.574,345.102 463.586,367.816 440.374,385.153 C438.426,386.609 437.581,387.861 438.229,390.476 C440.413,399.288 439.754,408.037 436.149,416.368 C435.057,418.889 436.123,420.351 437.141,422.247 C454.448,454.467 465.391,488.578 467.173,525.297 C468.404,550.648 464.113,575.001 452.992,597.983 C452.723,598.538 452.567,599.147 452.148,600.322 C457.358,600.322 462.115,600.322 466.872,600.322 C485.869,600.322 504.866,600.262 523.863,600.385 C526.765,600.404 528.202,599.542 529.421,596.811 C536.517,580.9 547.692,568.747 563.535,561.198 C565.683,560.174 566.466,558.97 566.348,556.67 C566.177,553.346 566.42,550.001 566.275,546.675 C566.093,542.534 567.282,539.453 571.755,538.521 C575.018,537.841 573.292,535.261 573.348,533.665 C573.431,531.299 574.785,527.964 572.598,526.673 C569.822,525.032 566.966,527.161 564.446,528.922 C560.218,531.875 555.916,534.727 551.591,537.537 C546.646,540.749 543.764,540.145 540.3,535.203 C537.626,531.389 534.947,527.574 532.438,523.653 C529.743,519.442 530.253,516.381 534.23,513.283 C542.899,506.53 551.683,499.924 560.359,493.181 C562.471,491.54 564.811,491.028 567.347,491.026 C583.512,491.013 599.676,490.959 615.84,491.048 C622.468,491.085 624.35,493.119 624.274,499.845 C624.203,506.167 624.057,512.492 623.747,518.805 C623.48,524.24 621.466,526.365 615.969,526.217 C612.215,526.116 611.477,527.554 611.728,530.833 C612.01,534.539 610.546,538.676 616.396,539.815 C618.648,540.254 619.537,543.244 619.095,545.721 C617.348,555.497 621.36,560.755 629.994,566.227 C652.06,580.211 662.246,601.98 663.13,627.739 C663.613,641.798 664.719,656.036 660.301,669.888 C654.46,688.201 644.248,702.269 624.865,707.859 C623.912,708.134 622.94,708.434 621.96,708.512 C603.172,710.013 584.29,710.275 565.591,708.624 C548.244,707.093 536.568,696.086 529.334,680.703 C519.992,660.836 519.601,639.809 522.931,618.608 C523.669,613.906 522.689,613.174 518.266,613.218 C496.271,613.439 474.27,613.536 452.279,613.172 C446.512,613.076 442.343,614.177 439.843,619.619 C439.251,620.908 438.184,621.978 436.743,623.965 C444.227,623.965 450.801,623.965 457.376,623.965 C465.208,623.966 473.041,624.029 480.872,623.94 C484.888,623.895 487.384,625.549 488.774,629.4 C505.072,674.551 521.461,719.669 537.753,764.823 C540.046,771.18 537.354,774.912 530.608,774.956 C518.111,775.038 505.612,774.98 493.114,774.98 C365.966,774.98 238.817,774.98 111.669,774.98 C110.336,774.98 109.002,775.013 107.67,774.974 C100.99,774.777 98.281,771.109 100.515,764.846 C106.041,749.354 111.729,733.919 117.34,718.457 C127.989,689.111 138.708,659.789 149.192,630.384 C150.867,625.687 153.537,623.848 158.408,623.906 C172.571,624.074 186.737,623.965 200.901,623.965 C202.494,623.965 204.086,623.965 206.442,623.965 C203.952,620.38 201.95,617.578 200.037,614.717 C198.602,612.573 196.453,613.35 194.577,613.349 C142.251,613.311 89.926,613.319 37.6,613.319 C27.601,613.319 17.601,613.427 7.605,613.274 C1.751,613.184 -1.446,608.776 0.639,604.011 C2.177,600.494 5.273,600.287 8.613,600.291 C52.44,600.337 96.267,600.322 140.094,600.322 C156.922,600.322 173.75,600.322 191.195,600.322 C189.521,596.432 187.905,592.893 186.459,589.286 C174.835,560.287 173.762,530.364 178.895,499.961 C183.417,473.174 192.436,447.909 205.275,423.998 C206.378,421.944 206.599,420.306 205.559,418.009 C201.38,408.784 200.309,399.168 203.121,389.315 C203.717,387.226 203.169,386.027 201.448,384.712 C177.726,366.587 161.731,342.926 151.969,314.915 C150.95,311.993 149.529,311.285 146.595,311.281 C125.989,311.249 113.537,299.105 112.546,278.263 C112.308,273.264 112.509,268.271 113.423,263.334 C114.772,256.042 117.946,249.796 124.366,245.144" fill="#6E4100"/>
    </g>
    <path d="M501.671,593.645 C487.381,593.574 476.198,582.197 476.315,567.846 C476.429,553.971 487.964,542.609 501.886,542.659 C515.956,542.711 527.494,554.463 527.304,568.55 C527.117,582.497 515.658,593.715 501.671,593.645" fill="#6E4100"/>
    <path d="M465.51,337.678 C449.339,365.242 425.607,383.644 395.871,394.465 C366.164,405.275 335.336,407.955 303.988,405.981 C278.207,404.357 253.301,399.121 230.064,387.386 C207.978,376.233 190.676,359.832 177.463,339.013 C177.213,338.619 177.232,338.053 177.125,337.568 C179.019,336.042 180.962,337.178 182.831,337.553 C203.454,341.687 223.233,326.501 224.651,305.399 C226.032,284.845 206.089,265.493 185.808,268.032 C176.859,269.152 169.795,274.016 163.965,280.819 C162.12,282.973 161.279,286.375 157.591,286.497 C146.372,229.275 158.457,177.161 192.796,130.356 C206.806,111.261 225.618,97.543 246.847,87.086 C250.705,85.186 250.88,86.542 251.444,89.918 C256.255,118.703 267.753,144.215 289.019,164.749 C291.275,166.927 293.888,168.8 296.542,170.49 C312.668,180.763 328.203,177.333 338.713,161.33 C342.206,156.011 344.435,150.129 346.531,143.726 C357.526,157.455 370.282,168.379 385.871,175.789 C391.308,178.373 396.876,180.486 402.984,180.696 C418.113,181.217 425.634,175.253 430.612,158.476 C436.677,163.83 442.77,168.861 449.668,172.817 C457.288,177.186 465.342,180.084 474.164,180.484 C475.986,180.567 477.148,180.797 477.827,182.817 C488.994,216.074 492.876,249.841 485.19,284.455 C482.671,284.521 482.066,282.262 480.894,280.794 C468.879,265.753 443.155,262.989 429.479,276.057 C413.551,291.278 412.319,307.779 427.494,327.077 C435.955,337.836 447.651,340.458 460.762,336.853 C463.588,336.076 463.589,336.079 465.51,337.678" fill="#FEF8EA"/>
    <path d="M126.374,165.463 C126.591,162.314 129.221,161.161 131.394,159.939 C134.339,158.281 136.565,156.501 136.411,152.739 C136.249,148.767 133.408,147.652 130.358,146.653 C129.438,144.151 127.223,142.859 125.305,141.313 C113.208,131.564 111.014,119.082 119.608,106.078 C128.746,92.252 141.206,82.282 156.479,75.843 C157.553,75.459 158.682,75.245 159.754,74.851 C160.897,74.211 162.323,74.347 163.404,73.531 C169.207,70.895 175.55,70.684 181.677,69.564 C188.449,68.328 189.997,66.823 189.347,60.14 C189.111,57.712 190.53,56.846 191.998,55.839 C223.859,33.973 258.005,17.755 297.111,14.418 C356.903,9.315 411.359,24.037 459.633,59.863 C494.696,85.884 517.446,120.173 525.751,163.41 C530.726,189.315 528.723,214.697 519.278,239.448 C517.911,243.032 516.263,244.222 512.704,242.535 C511.537,241.982 510.041,241.51 508.84,241.744 C502.497,242.977 502.322,239.369 501.923,234.454 C500.483,216.672 496.917,199.251 491.369,182.273 C490.452,179.465 489.659,177.206 492.736,174.878 C494.995,173.169 494.995,170.109 493.579,167.534 C491.999,164.66 488.999,163.392 486.317,164.636 C470.342,172.043 458.169,163.658 446.614,154.773 C436.824,147.243 428.401,138.193 424.205,126.003 C422.678,121.568 419.225,119.951 415.696,121.286 C411.69,122.8 410.245,125.91 411.973,130.689 C414.581,137.9 417.261,145.059 417.315,152.859 C417.401,165.271 410.383,170.534 398.411,166.668 C385.454,162.483 374.798,154.591 365.263,145.054 C357.616,137.405 351.301,128.95 348.963,118.113 C348.547,116.182 348.515,114.169 348.304,112.194 C347.873,108.155 345.789,105.515 341.592,105.662 C337.467,105.806 335.331,108.342 335.333,112.543 C335.339,122.191 335.671,131.86 333.38,141.353 C332.03,146.945 329.59,152.034 325.968,156.471 C319.688,164.166 313.476,165.278 304.919,160.289 C297.742,156.105 292.071,150.247 287.366,143.495 C272.476,122.13 262.94,98.93 263.458,72.375 C263.525,68.936 262.096,66.459 258.733,65.671 C255.527,64.92 252.684,65.877 251.252,69.109 C250.424,70.978 249.007,71.841 247.288,72.602 C191.596,97.252 160.532,141.573 146.468,199.298 C143.8,210.248 141.083,221.276 141.308,232.721 C141.326,233.659 140.794,234.608 140.518,235.551 C138.647,230.337 134.498,226.561 131.821,221.898 C121.526,203.966 117.795,185.276 126.374,165.463" fill="#C9A76F"/>
    <path d="M365.42,451.505 C387.504,451.203 402.247,446.294 427.084,430.912 C444.366,464.961 455.576,500.548 454.178,539.153 C452.869,575.281 438.936,605.909 412.503,630.75 C410.576,632.561 409.28,633.203 406.621,631.524 C395.923,624.769 386.646,616.087 375.977,609.32 C373.274,607.605 375.913,606.432 376.613,605.44 C385.113,593.395 391.81,580.44 396.775,566.563 C405.008,543.553 407.315,519.933 404.223,495.741 C403.533,490.343 401.069,487.967 396.703,488.38 C392.526,488.775 390.584,491.688 391.294,497.239 C395.918,533.38 387.243,566.216 367.032,596.282 C365.071,599.2 362.995,600.951 359.354,600.36 C358.217,600.176 357.021,600.265 355.86,600.342 C348.794,600.813 342.609,599.362 336.112,595.693 C320.457,586.854 304.499,588.167 289.36,597.851 C282.886,601.991 279.984,601.687 275.838,595.502 C255.968,565.865 247.465,533.438 252.095,497.837 C252.841,492.096 251.037,488.843 246.73,488.372 C242.333,487.89 239.985,490.076 239.241,495.613 C233.898,535.413 243.498,571.577 266.199,604.376 C268.893,608.267 268.424,609.731 264.68,612.142 C255.587,617.997 246.689,624.181 237.973,630.586 C234.687,633 232.716,632.553 229.948,629.905 C204.293,605.364 190.635,575.389 189.24,539.96 C187.741,501.879 198.26,466.642 215.263,433.024 C215.469,432.618 215.819,432.285 215.905,432.173 C229.81,441.614 244.789,447.971 261.301,450.427 C266.166,451.151 271.112,452.432 276.076,450.791 C277.744,452.345 276.871,454.252 276.627,455.95 C274.282,472.242 271.715,488.501 269.51,504.813 C269.069,508.072 268.079,510.851 264.733,512.416 C262.091,513.651 261.338,516.196 262.353,518.782 C263.975,522.915 262.926,526.559 261.151,530.273 C260.224,532.213 259.34,534.222 259.086,536.396 C258.792,538.903 259.38,541.153 261.912,542.192 C264.509,543.258 266.44,541.901 267.873,539.851 C269.796,537.101 270.704,533.845 272.066,530.819 C273.271,528.142 274.755,526.088 277.642,524.847 C281.907,523.015 282.765,520.607 280.677,516.487 C279.074,513.322 278.876,510.206 279.361,506.824 C282.457,485.265 285.779,463.741 288.98,442.198 C289.02,441.928 289.043,441.764 289.051,441.704 C289.466,438.53 290.176,435.063 286.271,433.594 C282.29,432.096 280.554,434.888 279.252,438.034 C278.986,438.676 278.52,439.114 277.763,439.119 C274.42,437.798 270.873,438.448 267.432,438.14 C253.545,436.898 241.017,431.699 228.977,425.154 C219.45,419.974 213.255,407.658 214.675,397.935 C215.101,395.022 215.782,394.339 218.602,395.948 C239.108,407.642 261.404,413.948 284.621,417.199 C287.761,417.639 289.158,418.993 290.432,421.58 C293.526,427.867 297.289,433.76 302.129,438.882 C315.989,453.55 333.951,452.654 346.218,436.713 C349.894,431.936 352.832,426.709 354.967,421.104 C355.976,418.454 357.412,417.114 360.211,416.723 C382.293,413.639 403.331,407.257 422.926,396.476 C425.687,394.957 426.298,395.85 426.353,398.627 C426.58,410.066 422.213,419.226 412.288,424.961 C397.233,433.66 381.112,439.045 363.424,438.498 C361.933,437.83 361.484,436.278 360.564,435.126 C359.164,433.373 357.36,432.79 355.23,433.405 C353.253,433.975 352.28,435.47 351.934,437.409 C351.546,439.581 351.967,441.711 352.286,443.856 C355.542,465.748 359.086,487.598 361.915,509.553 C362.224,511.945 362.212,514.102 360.613,516.156 C358.127,519.346 358.904,522.416 362.281,524.072 C366.582,526.183 368.668,529.649 370.171,533.842 C370.956,536.033 371.994,538.138 373.292,540.084 C374.746,542.265 376.706,543.351 379.26,542.115 C381.615,540.976 382.699,538.975 382.124,536.354 C381.479,533.414 380.204,530.675 378.962,527.956 C377.655,525.096 377.08,522.391 378.592,519.365 C380.093,516.361 379.233,513.734 376.216,512.223 C373.355,510.791 372.21,508.523 371.766,505.513 C369.339,489.048 366.971,472.573 364.406,456.128 C364.15,454.487 363.907,452.787 365.42,451.505" fill="#87C9D5"/>
    <path d="M206.19,637.119 C199.705,643.065 195.658,648.781 194.189,656.105 C191.7,668.517 195.212,679.038 204.861,686.963 C214.843,695.162 226.282,696.608 238.069,691.095 C241.565,689.46 243.42,689.338 245.71,692.761 C248.128,696.378 251.925,698.703 255.875,700.623 C259.048,702.165 260.72,704.167 260.625,708.314 C260.022,734.613 277.36,753.808 303.559,755.955 C310.23,756.502 316.81,755.177 323.055,752.529 C325.023,751.695 326.909,750.757 329.111,750.351 C334.495,749.357 339.631,749.141 345.199,750.122 C359.043,752.564 372.747,744.15 378.23,730.592 C379.249,728.072 380.508,726.728 383.156,725.806 C407.165,717.444 418.685,692.537 411.616,668.068 C409.27,659.945 410.561,650.752 417.617,643.486 C422.621,638.334 427.906,636.698 434.865,636.964 C447.674,637.453 460.516,637.205 473.341,637.032 C476.495,636.989 478.03,637.948 479.118,640.976 C493.06,679.775 507.086,718.544 521.236,757.267 C522.693,761.255 521.692,761.912 517.793,761.91 C385.355,761.828 252.917,761.829 120.479,761.906 C116.672,761.908 115.575,761.509 117.101,757.344 C131.291,718.63 145.26,679.835 159.313,641.07 C159.958,639.288 160.097,637.083 162.937,637.094 C176.886,637.149 190.835,637.119 206.19,637.119" fill="#BEBEBE"/>
    <path d="M297.663,608.169 C313.588,598.757 332.421,603.198 342.05,618.109 C346.01,624.243 347.671,624.696 354.151,621.567 C361.465,618.036 368.369,618.757 374.646,623.924 C380.462,628.711 382.511,636.354 380.2,643.812 C378.094,650.608 378.537,651.736 384.741,655.388 C396.49,662.303 402.555,675.468 400.218,688.983 C398.057,701.475 388.014,711.947 375.213,714.486 C370.305,715.46 367.99,717.649 366.96,722.779 C364.361,735.725 349.763,741.642 338.925,734.213 C334.192,730.969 330.9,731.364 326.622,734.991 C316.306,743.739 304.519,745.548 292.205,739.793 C279.71,733.953 273.821,723.637 273.419,709.89 C273.315,706.334 275.639,704.099 276.695,701.201 C277.125,700.024 277.927,700.197 279.062,700.575 C290.174,704.277 294.207,701.867 295.686,690.786 C305.471,694.494 310.061,691.452 311.248,680.21 C312.134,671.814 310.655,663.697 307.433,655.658 C310.318,655.658 312.971,655.911 315.559,655.607 C321.512,654.907 325.158,650.935 325.383,644.966 C325.703,636.469 321.887,629.585 316.592,623.334 C311.384,617.185 304.724,612.799 297.663,608.169" fill="#FEFEFE"/>
    <path d="M592.595,696.305 C587.096,696.305 581.58,696.016 576.102,696.357 C555.53,697.636 543.98,684.751 539.708,671.734 C530.585,643.937 531.231,616.722 547.557,591.269 C550.817,586.188 555.24,582.106 560.025,578.425 C565.712,574.049 571.732,571.438 579.293,571.862 C589.591,572.441 599.947,572.068 610.277,571.969 C613.383,571.939 616.077,572.701 618.792,574.228 C631.528,581.39 640.434,591.9 645.413,605.476 C653.174,626.64 653.531,648.179 646.503,669.57 C640.484,687.892 628.23,696.305 609.091,696.305 C603.592,696.305 598.094,696.305 592.595,696.305" fill="#FEFEFE"/>
    <path d="M465.51,337.678 C461.577,336.569 458.38,339.379 454.602,339.656 C436.105,341.011 424.411,329.311 417.727,312.805 C409.357,292.134 428.067,268.9 444.085,266.917 C460.842,264.842 475.386,269.485 485.19,284.456 C481.978,303.434 475.654,321.262 465.51,337.678" fill="#FFD9B4"/>
    <path d="M157.591,286.497 C161.925,282.874 164.309,277.634 168.896,274.028 C185.598,260.9 208.105,264.91 220.059,284.667 C235.33,309.909 216.734,334.719 198.285,338.991 C191.192,340.634 184.081,339.527 177.125,337.568 C167.686,323.099 162.324,307.011 158.379,290.361 C158.077,289.082 157.852,287.785 157.591,286.497" fill="#FFD9B4"/>
    <path d="M264.258,690.259 C261.967,687.851 260.331,686.228 258.806,684.507 C255.108,680.333 252.806,676.475 255.041,670.001 C258.318,660.509 255.641,651.156 249.291,643.356 C246.941,640.469 247.826,639.523 250.315,637.842 C260.094,631.239 269.741,624.441 279.466,617.758 C280.744,616.88 281.783,615.403 283.842,616.301 C294.529,620.967 304.138,626.963 310.413,637.214 C310.758,637.776 311.042,638.388 311.268,639.009 C311.606,639.937 311.867,640.893 312.186,641.919 C310.344,643.287 308.698,642.101 307.069,641.644 C303.871,640.748 300.725,639.657 297.514,638.812 C294.276,637.959 291.109,638.022 289.09,641.243 C287.306,644.088 288.045,646.666 289.766,649.534 C294.477,657.389 298.278,665.646 298.397,675.866 C293.254,671.736 289.394,667.389 286.597,662.068 C284.148,657.409 280.639,655.791 277.026,657.531 C273.497,659.23 272.627,663.145 274.805,667.89 C277.183,673.072 279.697,678.202 279.71,684.249 C277.504,680.996 275.208,677.799 273.113,674.476 C269.988,669.522 266.763,668.085 262.961,670.174 C259.264,672.207 258.721,676.007 261.502,680.954 C262.965,683.556 264.459,686.122 264.258,690.259" fill="#FEF8EA"/>
    <path d="M365.42,451.505 C367.224,464.151 369.037,476.795 370.829,489.443 C371.388,493.388 371.71,497.377 372.474,501.281 C373.269,505.348 372.452,510.063 378.4,511.85 C381.276,512.714 382.321,516.804 380.189,519.523 C377.923,522.411 378.91,524.581 380.117,527.192 C381.371,529.904 382.437,532.706 383.517,535.496 C385.012,539.356 383.344,542.04 379.961,543.648 C376.278,545.399 373.468,543.873 371.698,540.47 C370.397,537.968 369.366,535.322 368.257,532.722 C366.907,529.555 365.862,526.624 361.663,525.522 C357.286,524.373 356.064,519.279 358.968,515.817 C360.512,513.978 360.957,512.553 360.589,510.153 C357.117,487.511 353.816,464.842 350.547,442.169 C350.174,439.583 349.537,436.84 351.076,434.374 C352.543,432.023 354.766,431.13 357.502,431.464 C361.663,431.971 362.64,435.152 363.424,438.498 C364.09,442.834 364.755,447.169 365.42,451.505" fill="#FEFEFE"/>
    <path d="M277.763,439.119 C277.922,438.5 278.156,437.89 278.228,437.261 C278.722,432.946 281.329,431.165 285.424,431.493 C289.148,431.792 291.564,434.987 290.982,438.949 C287.676,461.443 284.314,483.929 280.91,506.409 C280.361,510.038 279.789,513.282 282.552,516.659 C285.098,519.771 283.088,524.949 279.031,525.829 C275.667,526.559 274.458,528.43 273.424,531.196 C272.261,534.306 270.961,537.389 269.417,540.324 C267.685,543.616 264.944,545.295 261.154,543.781 C257.329,542.254 256.678,539.03 257.527,535.512 C258.066,533.279 259.183,531.169 260.167,529.064 C261.723,525.736 263.017,522.785 260.706,518.888 C258.977,515.973 260.259,512.062 263.8,511.128 C267.281,510.21 267.677,507.993 268.056,505.43 C270.507,488.847 272.887,472.253 275.297,455.663 C275.534,454.033 275.816,452.408 276.077,450.786 C276.638,446.901 277.201,443.01 277.763,439.119" fill="#FEFEFE"/>
    <path d="M243.175,662.642 C243.314,672.455 234.739,681.172 224.837,681.285 C215.369,681.392 206.678,672.879 206.385,663.211 C206.086,653.346 214.5,644.645 224.495,644.481 C234.484,644.317 243.032,652.629 243.175,662.642" fill="#FEFEFE"/>
    <path d="M157.267,76.436 C143.42,83.066 131.125,91.665 122.111,104.362 C119.302,108.319 117.221,112.607 116.268,117.455 C114.409,126.911 118.317,133.915 125.304,139.735 C127.216,141.329 129.104,142.956 130.941,144.636 C131.969,145.576 131.715,146.317 130.357,146.653 C122.66,145.864 115.348,143.86 108.785,139.622 C98.339,132.876 95.809,123.442 101.765,112.615 C107.269,102.61 115.485,95.096 125.017,89.1 C134.443,83.17 144.397,78.237 155.303,75.522 C156.331,75.025 157.336,74.577 157.267,76.436" fill="#FEFEFE"/>
    <path d="M518.209,274.1 C517.917,278.111 517.622,282.076 516.395,285.902 C513.878,293.755 507.398,298.361 499.151,298.399 C496.765,298.41 495.778,297.857 496.415,295.305 C499.476,283.046 501.094,270.564 501.77,257.967 C501.9,255.541 502.957,254.87 505.088,254.682 C510.026,254.246 513.814,256.364 515.827,260.989 C517.649,265.174 517.848,269.668 518.209,274.1" fill="#FEF8EA"/>
    <path d="M125.538,274.076 C125.456,269.894 125.97,265.79 127.365,261.838 C128.274,259.265 129.775,257.093 132.279,255.809 C137.68,253.039 140.446,254.498 140.907,260.484 C141.8,272.083 143.202,283.606 146.107,294.887 C146.944,298.136 145.638,298.594 142.893,298.314 C132.348,297.235 126.471,290.263 125.549,277.564 C125.465,276.407 125.538,275.239 125.538,274.076" fill="#FEF8EA"/>
    <path d="M586.773,513.351 C584.609,513.351 582.419,513.569 580.285,513.314 C569.55,512.033 559.93,514.288 551.698,521.65 C550.617,522.617 549.07,524.886 547.263,522.196 C545.49,519.556 548.341,519.234 549.396,518.141 C560.716,506.422 574.276,501.396 590.647,503.765 C596.029,504.544 601.623,504.031 607.11,503.833 C610.255,503.72 611.741,504.452 611.221,507.968 C610.83,510.616 612.069,513.701 607.246,513.443 C600.44,513.078 593.599,513.35 586.773,513.351" fill="#86C7D2"/>
    <path d="M126.374,165.463 C124.449,173.166 122.712,180.859 123.188,188.929 C124.064,203.744 127.997,217.33 138.689,228.161 C141.004,230.505 139.902,233.108 140.518,235.553 C136.158,237.947 132.998,235.228 130.096,232.75 C122.217,226.02 118.922,216.832 117.705,206.957 C116.054,193.56 117.653,180.542 123.935,168.342 C124.544,167.16 124.937,165.899 126.374,165.463" fill="#FEFEFD"/>
    <path d="M304.447,419.642 C311.107,419.642 317.09,419.642 323.074,419.642 C329.014,419.642 334.953,419.642 341.149,419.642 C339.075,424.538 336.332,429.013 332.26,432.515 C326.511,437.458 321.131,437.557 315.111,432.92 C310.598,429.444 307.244,425.008 304.447,419.642" fill="#FEF8EA"/>
    <path d="M592.485,559.106 C589.32,559.109 586.137,558.896 582.996,559.168 C579.658,559.457 579.218,557.898 579.198,555.055 C579.178,552.215 580.06,551.345 582.877,551.422 C589.535,551.604 596.204,551.592 602.863,551.427 C605.565,551.36 606.331,552.368 606.21,554.907 C606.101,557.198 606.318,559.294 602.977,559.139 C599.487,558.977 595.983,559.103 592.485,559.106" fill="#86C6D1"/>
    <path d="M592.338,538.301 C586.861,539.869 586.556,536.908 586.24,532.324 C585.83,526.36 588.652,526.489 593.154,526.133 C599.017,525.67 598.744,528.607 599.071,532.813 C599.51,538.46 596.987,539.369 592.338,538.301" fill="#86C6D1"/>
    <path d="M394.635,639.385 C399.384,641.3 401.747,644.066 399.672,649.018 C393.411,646.595 393.037,645.905 394.635,639.385" fill="#F8F0E1"/>
    <path d="M157.267,76.436 C156.613,76.131 155.958,75.827 155.303,75.522 C156.316,74.501 157.627,74.412 158.948,74.358 C159.953,73.993 160.406,74.332 160.283,75.405 C159.277,75.749 158.272,76.092 157.267,76.436" fill="#E9E3DA"/>
    <path d="M160.283,75.405 C159.838,75.056 159.393,74.707 158.948,74.358 C160.296,73.34 161.8,73.171 163.404,73.531 C162.814,74.906 161.363,74.846 160.283,75.405" fill="#E6DCCE"/>
    <path d="M501.869,580.628 C495.185,580.678 489.45,575.099 489.317,568.421 C489.186,561.833 494.845,555.874 501.429,555.668 C508.122,555.458 514.305,561.487 514.293,568.211 C514.281,574.812 508.511,580.58 501.869,580.628" fill="#FEFDFD"/>
    <path d="M413.222,273.488 C413.02,279.258 411.866,284.568 407.213,288.334 C402.408,292.223 396.895,293.337 391.429,290.25 C384.684,286.44 381.207,280.233 381.585,272.462 C381.895,266.113 384.701,260.577 389.322,256.174 C395.003,250.762 402.116,251.136 407.3,257.027 C411.449,261.743 412.89,267.481 413.222,273.488" fill="#6E4100"/>
    <path d="M264.488,273.839 C264.376,279.921 262.854,285.421 257.571,289.096 C253.008,292.271 247.954,293.042 242.978,290.385 C236.628,286.994 233.166,281.297 232.944,274.208 C232.714,266.884 235.756,260.557 241.248,255.694 C246.938,250.656 253.791,251.329 258.804,257.226 C262.853,261.99 264.418,267.679 264.488,273.839" fill="#6E4100"/>
    <path d="M320.449,369.041 C303.485,368.934 290.868,357.165 284.569,343.13 C283.395,340.513 283.785,337.728 286.789,336.323 C289.945,334.848 292.255,336.175 293.737,339.105 C296.002,343.583 298.678,347.777 302.325,351.257 C315.895,364.207 336.724,360.311 346.025,343.096 C346.654,341.932 347.107,340.675 347.663,339.472 C349.106,336.342 351.662,335.347 354.63,336.705 C357.783,338.147 357.966,340.945 356.728,343.919 C352.663,353.685 345.955,360.979 336.377,365.541 C331.35,367.936 326.01,369.018 320.449,369.041" fill="#6E4100"/>
    <path d="M226.389,140.976 C227.027,135.842 235.838,129.275 242.991,128.505 C249.581,127.796 254.629,130.269 258.32,135.682 C259.86,137.941 259.749,140.174 257.625,141.889 C255.538,143.574 253.412,143.217 251.374,141.404 C245.077,135.803 240.058,136.385 235.105,143.394 C233.613,145.506 232.052,146.962 229.379,146.059 C227.007,145.258 226.09,143.434 226.389,140.976" fill="#6E4300"/>
    <path d="M326.825,277.908 C326.517,280.664 324.893,282.471 321.701,282.495 C318.911,282.516 314.516,276.96 314.606,273.327 C314.682,270.28 316.379,268.324 319.534,268.115 C322.65,267.91 326.872,273.482 326.825,277.908" fill="#6F4401"/>
    <path d="M237.064,700.348 C248.38,700.442 257.25,709.407 257.197,720.697 C257.145,731.912 248.118,740.977 236.928,741.05 C225.673,741.124 216.31,731.627 216.493,720.322 C216.676,709.054 225.739,700.254 237.064,700.348" fill="#6E4100"/>
    <path d="M370.327,678.778 C370.215,686.792 363.413,693.572 355.658,693.4 C347.783,693.226 341.296,686.441 341.336,678.419 C341.375,670.547 348.024,664.32 356.266,664.435 C364.109,664.545 370.435,670.997 370.327,678.778" fill="#C0E2E8"/>
    <path d="M335.987,708.345 C336.039,712.423 332.647,715.482 328.049,715.507 C323.889,715.529 320.412,712.046 320.504,707.948 C320.589,704.119 324.154,700.521 327.884,700.501 C332.066,700.479 335.935,704.224 335.987,708.345" fill="#C1E2E8"/>
    <path d="M592.902,589.319 C619.189,589.43 639.413,610.236 639.295,637.047 C639.184,662.002 618.037,682.7 592.711,682.64 C566.343,682.577 545.988,661.812 546.138,635.127 C546.281,609.667 567.165,589.21 592.902,589.319" fill="#6E4100"/>
    <path d="M244.171,720.726 C244.116,724.557 240.591,727.99 236.768,727.935 C232.934,727.879 229.466,724.327 229.526,720.515 C229.586,716.668 233.075,713.318 236.983,713.354 C240.883,713.391 244.227,716.82 244.171,720.726" fill="#FDFDFD"/>
    <path d="M559.153,636.183 C559.094,617.496 573.926,602.433 592.475,602.338 C611.023,602.244 626.238,617.272 626.296,635.742 C626.355,654.334 611.416,669.489 592.913,669.611 C574.366,669.732 559.211,654.726 559.153,636.183" fill="#87C9D5"/>
  </g>
</svg>
