<?xml version="1.0" encoding="UTF-8"?>
<!DOCTYPE svg PUBLIC "-//W3C//DTD SVG 1.1//EN" "http://www.w3.org/Graphics/SVG/1.1/DTD/svg11.dtd">
<svg version="1.1" xmlns="http://www.w3.org/2000/svg" xmlns:xlink="http://www.w3.org/1999/xlink" x="0" y="0" width="1371" height="1136" viewBox="0, 0, 1371, 1136">
  <defs>
    <clipPath id="Clip_1">
      <path d="M0.06,0.74 L1370.32,0.74 L1370.32,1136 L0.06,1136 z"/>
    </clipPath>
  </defs>
  <g id="Layer_1">
    <g clip-path="url(#Clip_1)">
      <path d="M197.917,1120.99 L341.917,1120.99 L341.251,1064.32 L333.917,1036.99 L211.917,1044.99 L197.917,1120.99" fill="#FEFEFE"/>
      <path d="M682.879,572.924 C685.341,562.601 687.27,551.583 688.539,539.296 C698.113,551.524 707.939,562.184 718.753,572.924 C706.845,572.924 694.937,572.924 682.879,572.924 z M1370.26,866.444 C1369.6,835.08 1362.16,805.757 1345.87,779.143 C1317.13,732.193 1275.02,701.777 1223.48,684.158 C1195.39,674.558 1166.44,669.647 1136.58,673.013 C1134.03,673.301 1132.01,672.296 1129.91,671.436 C1109.53,663.07 1088.54,657.783 1066.32,658.988 C1063.24,659.155 1062.37,657.642 1061.37,655.368 C1054.76,640.301 1047.54,625.535 1039.22,611.333 C1037.45,608.313 1037.49,607.034 1041.09,605.446 C1062.4,596.05 1081.74,583.536 1099.01,567.87 C1108.76,559.036 1117.41,549.206 1126.06,538.13 C1126.47,541.07 1126.8,543.126 1127.03,545.193 C1129.86,570.421 1136.72,594.416 1149.49,616.469 C1163.14,640.028 1181.41,658.959 1206.05,671.197 C1212.31,674.301 1214.84,673.725 1219.18,668.876 C1221.74,667.321 1221.37,665.016 1220.69,662.695 C1219.73,659.405 1217.27,657.563 1214.34,656.068 C1193.89,645.658 1178.31,630.078 1166.38,610.656 C1149,582.367 1143.7,550.945 1142.45,518.471 C1142.36,515.901 1143.18,513.554 1144.36,511.314 C1151.52,497.736 1157.8,483.778 1162.19,469.048 C1163.31,465.294 1165.19,464.966 1168.5,466.254 C1174.57,468.617 1180.41,471.425 1186.16,474.434 C1221.19,492.755 1244.1,521.142 1255.61,558.769 C1261.49,577.99 1264.06,597.751 1263.79,617.868 C1263.73,621.695 1263.43,625.559 1263.96,629.344 C1264.46,632.987 1265.41,636.635 1270.16,637.018 C1277.59,637.765 1281.07,635.186 1281.23,628.566 C1281.71,608.204 1280.64,587.971 1276.08,568.029 C1265.99,523.853 1243.14,488.538 1204.18,464.401 C1197.47,460.247 1190.39,456.785 1183.3,453.391 C1183.84,452.195 1184.7,452.133 1185.48,451.86 C1199,447.118 1207.68,437.684 1212.16,424.223 C1215.92,412.933 1216.09,401.314 1214.83,389.662 C1214.54,386.937 1215.09,384.872 1216.41,382.67 C1247.55,330.722 1251.58,276.201 1229.44,220.356 C1201.16,149.042 1153.28,93.446 1088.18,53.241 C1032.94,19.128 973.138,-0.783 907.338,0.831 C875.585,1.61 844.34,5.971 813.962,15.368 C796.261,20.843 779.091,27.675 765.993,41.679 C764.771,42.985 763.425,42.926 761.956,43.041 C741.471,44.652 722.065,50.214 703.823,59.566 C662.032,80.991 630.768,113.619 606.161,152.95 C585.881,185.366 573.723,220.596 572.195,259.081 C570.56,300.249 581.324,338.365 601.06,374.196 C602.047,375.988 602.761,377.57 602.136,379.769 C599.038,390.66 598.611,401.775 600.238,412.92 C602.953,431.526 611.459,445.817 630.328,452.071 C631.002,452.294 631.45,452.679 631.521,453.416 C581.46,476.038 550.981,514.517 538.83,567.851 C537.305,574.543 537.266,574.484 529.94,573.741 C488.046,569.492 446.153,565.243 404.254,561.044 C361.527,556.761 318.793,552.55 276.065,548.273 C269.288,547.595 265.628,550.658 265.388,557.488 C265.323,559.319 265.377,561.154 265.377,562.987 C265.377,574.979 265.377,574.979 253.505,574.111 C244.614,573.46 241.385,576.493 241.383,585.558 C241.375,616.384 241.38,647.21 241.379,678.036 C241.379,685.01 241.377,685.082 234.185,684.887 C208.3,684.187 183.091,687.902 158.66,696.521 C108.114,714.353 69.721,747.399 41.498,792.267 C9.341,843.388 -6.265,898.846 2.338,959.567 C6.379,988.092 17.08,1014.11 38.702,1033.89 C66.333,1059.16 99.821,1070.19 136.999,1069.9 C160.847,1069.71 183.841,1066.01 202.892,1049.15 C200.119,1061.47 197.276,1073.39 194.781,1085.38 C191.929,1099.08 189.939,1112.91 189.771,1126.94 C189.697,1133.19 192.31,1135.88 197.843,1135.84 C203.227,1135.81 205.518,1133.09 205.742,1126.68 C206.62,1101.57 212.45,1077.33 218.817,1053.18 C219.364,1051.11 220.233,1050.52 222.274,1050.92 C236.574,1053.75 251.048,1054 265.545,1053.54 C267.464,1053.48 268.221,1054.01 268.701,1055.71 C273.526,1072.77 291.998,1079.2 307.376,1078.14 C317.771,1077.42 325.898,1072.48 332.929,1064.62 C333.286,1065.65 333.589,1066.21 333.663,1066.8 C333.889,1068.62 334.041,1070.44 334.199,1072.26 C335.78,1090.55 335.781,1108.83 333.85,1127.1 C333.244,1132.83 336.346,1135.93 341.981,1135.84 C347.265,1135.77 349.383,1133.23 350.061,1126.06 C352.517,1100.06 351.454,1074.18 347.448,1048.41 C345.915,1038.54 345.871,1038.62 355.113,1034.94 C382.58,1024.01 407.388,1009.05 425.716,985.332 C450.053,953.836 456.977,918.08 449.796,879.293 C449.355,876.912 448.605,875.207 452.305,875.323 C476.593,876.09 500.889,876.612 525.174,877.464 C528.555,877.582 532.138,876.883 535.413,878.763 C558.681,892.12 583.789,894.827 609.758,890.64 C622.864,888.527 634.916,883.721 641.058,870.412 C641.957,868.463 643.414,868.932 644.808,868.891 C689.557,867.607 734.308,866.363 779.055,865.019 C781.854,864.935 782.409,866.008 782.346,868.475 C782.046,880.122 781.912,891.773 781.637,903.42 C780.884,935.368 780.059,967.313 779.342,999.261 C779.218,1004.8 781.764,1008.08 786.183,1008.77 C790.445,1009.44 793.663,1006.92 795.331,1001.59 C796.34,999.979 796.443,998.158 796.663,996.328 C798.876,977.931 797.683,959.413 798.254,940.969 C798.964,918.031 800.175,895.06 799.597,872.079 C799.589,871.747 799.626,871.412 799.607,871.081 C799.418,867.715 800.988,866.466 804.361,866.277 C817.661,865.53 830.977,865.584 844.276,865.15 C853.485,864.85 859.004,870.482 864.407,875.96 C867.879,879.479 871.113,882.683 875.772,884.454 C888.785,889.4 900.973,886.869 912.762,880.578 C915.464,879.136 917.994,878.051 921.262,878.835 C934.431,881.99 947.84,883.233 961.364,883.319 C968.136,883.363 968.272,883.567 967.512,890.488 C963.434,927.586 972.987,960.807 996.328,989.898 C999.769,994.187 1003.11,999.08 1008.94,1000.84 C1027.15,1017.05 1048,1028.76 1070.88,1036.93 C1073.81,1037.98 1074.56,1039.3 1074.11,1042.3 C1072.77,1051.16 1071.53,1060.05 1070.65,1068.97 C1068.7,1088.85 1068.37,1108.76 1070.97,1128.63 C1071.69,1134.08 1074.28,1135.98 1079.7,1135.87 C1084.89,1135.77 1086.23,1132.15 1087.21,1128.1 C1088.25,1126.6 1087.91,1124.94 1087.88,1123.28 C1087.76,1116.79 1086.72,1110.35 1086.62,1103.88 C1086.38,1087.22 1087.89,1070.66 1089.96,1054.16 C1091.08,1045.2 1091.21,1045.33 1099.82,1047.29 C1131.17,1054.43 1162.75,1058.14 1194.82,1053.05 C1198.92,1052.39 1200.64,1054.08 1201.53,1057.7 C1205.59,1074.35 1209.4,1091.04 1211.79,1108.04 C1212.76,1114.93 1211.98,1122.08 1214.79,1128.69 C1216.53,1134.84 1219,1136.61 1224.73,1135.83 C1228.78,1135.28 1231.01,1132.1 1230.89,1126.46 C1230.72,1118.14 1229.88,1109.86 1228.64,1101.63 C1226.2,1085.33 1222.73,1069.25 1218.35,1053.37 C1217.5,1050.28 1218.02,1049.46 1221.38,1049.54 C1225,1049.63 1228.67,1048.9 1232.25,1048.23 C1248.21,1045.24 1262.09,1037.06 1276.14,1029.68 C1311.66,1011.02 1339.11,984.221 1355.73,947.238 C1367.28,921.553 1370.84,894.501 1370.26,866.444" fill="#6E4100"/>
    </g>
    <path d="M795.331,1001.59 C796.186,965.837 797.055,930.082 797.886,894.326 C798.087,885.673 798.274,877.016 798.234,868.362 C798.221,865.5 799.169,864.721 801.963,864.67 C817.599,864.386 833.234,863.97 848.862,863.426 C851.296,863.341 852.898,863.972 854.385,865.84 C856.381,868.348 858.885,870.269 862.142,870.977 C863.298,871.228 864.413,871.618 864.931,872.826 C869.827,884.266 880.297,885.195 890.416,885.412 C899.133,885.6 907.427,882.678 914.854,877.804 C916.181,876.934 917.274,876.133 919.311,876.695 C934.671,880.935 950.422,881.972 966.271,881.644 C969.363,881.579 970.225,881.974 969.73,885.393 C964.43,922.001 972.2,955.358 994.506,985.223 C998.818,990.997 1004.22,995.559 1008.94,1000.84 C939.857,1000.85 870.775,1000.85 801.694,1000.88 C799.56,1000.88 797.348,1000.444 795.331,1001.59" fill="#FFA89A"/>
    <path d="M1219.18,668.876 C1220.76,663.1 1219.68,660.088 1214.88,657.696 C1183.45,642.029 1164,616.155 1152.2,583.888 C1145.64,565.952 1143.09,547.262 1141.59,528.253 C1140.83,518.59 1142.86,510.475 1147.4,502.217 C1153.59,490.978 1157.89,478.862 1161.62,466.597 C1162.53,463.63 1163.59,463.027 1166.47,464.1 C1212.04,481.031 1242.74,512.164 1257.07,558.887 C1263.87,581.06 1265.83,603.864 1265.15,626.938 C1265.02,631.357 1266.26,634.761 1270.16,637.018 C1266.78,650.301 1260.13,661.113 1247.31,667.271 C1238.16,671.673 1228.71,671.085 1219.18,668.876" fill="#D7AA61"/>
    <path d="M1087.21,1128.1 C1084.19,1109.06 1084.88,1089.96 1086.52,1070.88 C1087.18,1063.26 1088.35,1055.69 1089.23,1048.09 C1089.61,1044.83 1090.34,1043.26 1094.5,1044.34 C1124.16,1052.03 1154.27,1055.55 1184.93,1052.82 C1189.23,1052.44 1193.5,1051.69 1197.75,1050.97 C1199.84,1050.62 1201.24,1050.87 1201.85,1053.23 C1208.05,1077.4 1213.89,1101.63 1214.93,1126.71 C1214.96,1127.37 1214.84,1128.03 1214.79,1128.69 C1212.99,1128.49 1211.19,1128.11 1209.39,1128.11 C1168.66,1128.08 1127.94,1128.09 1087.21,1128.1" fill="#87C9D5"/>
    <path d="M534.387,348.069 C531.383,348.211 528.801,347.241 526.823,344.96 C513.422,329.507 499.968,314.1 486.705,298.53 C482.748,293.885 483.365,287.824 487.547,284.233 C491.895,280.499 498.084,281.021 502.191,285.744 C515.176,300.677 528.118,315.647 540.971,330.694 C545.354,335.826 545.272,341.436 541.142,345.403 C539.262,347.209 537.046,348.214 534.387,348.069" fill="#EF6F63"/>
    <path d="M441.609,362.798 C442.254,362.938 443.748,363.129 445.154,363.589 C462.692,369.329 480.229,375.072 497.739,380.899 C503.113,382.688 505.604,386.284 505.306,391.267 C505.022,396.011 501.771,399.477 496.948,400.535 C495.001,400.963 493.267,400.426 491.579,399.878 C473.715,394.081 455.859,388.259 438.05,382.298 C432.5,380.44 430.198,376.214 431.142,370.623 C431.902,366.119 435.913,362.86 441.609,362.798" fill="#EF6F63"/>
    <path d="M450.494,462.163 C445.837,462.163 441.18,462.214 436.525,462.149 C430.873,462.071 426.889,458.507 426.368,453.187 C425.865,448.055 429.319,443.456 434.811,442.62 C438.401,442.074 442.095,442.168 445.745,442.067 C459.203,441.692 472.661,441.329 486.121,441.015 C492.722,440.861 497.072,444.56 497.324,450.396 C497.599,456.777 493.808,460.7 486.889,460.961 C480.741,461.192 474.586,461.285 468.433,461.35 C462.455,461.413 456.476,461.363 450.497,461.363 C450.496,461.63 450.495,461.896 450.494,462.163" fill="#EF6F63"/>
    <path d="M658.316,421.898 C650.48,378.608 654.401,336.091 666.511,294.063 C677.806,254.861 695.328,219.013 722.823,188.48 C749.086,159.314 781.107,138.771 817.702,124.991 C821.281,123.643 821.899,125.484 823.086,127.771 C840.599,161.519 862.207,192.367 888.721,219.67 C914.011,245.712 943.218,266.277 975.756,282.398 C1017.52,303.091 1059.99,321.891 1105.05,334.318 C1120.78,338.659 1136.7,342.173 1153.05,343.107 C1156.8,343.321 1158.04,344.648 1158.34,348.386 C1160.16,371.021 1159.91,393.563 1156.19,416.01 C1152.25,415.382 1151.55,411.628 1149.72,409.087 C1141.16,397.174 1129.99,389.65 1115.37,387.095 C1102.6,384.864 1090.99,388.09 1080.64,394.875 C1061.52,407.399 1050.38,425.265 1049.54,448.378 C1048.78,469.602 1062.19,488.353 1082.22,495.702 C1096.91,501.09 1111.77,503.575 1127.09,498.15 C1128.34,497.707 1130.17,496.449 1131.12,498.845 C1111.94,537.136 1083.19,566.004 1045.26,585.707 C1015.21,601.318 982.947,609.324 949.46,613.027 C937.045,614.399 924.602,615.017 912.131,615.459 C908.733,615.579 908.016,614.405 908.062,611.252 C908.233,599.594 908.167,587.932 908.117,576.273 C908.085,568.854 905.081,565.831 897.793,566.101 C848.087,567.945 798.384,569.846 748.68,571.725 C746.85,571.794 745.105,571.801 743.457,570.603 C716.407,550.925 695.653,525.998 681.058,495.921 C680.916,495.63 680.908,495.274 680.837,494.949 C682.761,493.885 684.406,495.105 686.042,495.718 C694.053,498.722 702.356,500.889 710.826,501.219 C720.358,501.59 729.874,500.145 738.005,494.517 C750.609,485.794 760.408,474.754 765.32,459.887 C767.623,452.916 768.003,445.768 766.564,438.704 C763.281,422.589 756.053,408.4 743.272,397.815 C722.98,381.008 695.836,383.41 676.717,400.756 C671.142,405.815 666.245,411.445 662.342,417.932 C661.384,419.524 660.83,421.781 658.316,421.898" fill="#FEF8EA"/>
    <path d="M765.992,59.151 C769.148,59.052 772.309,59.038 775.458,58.836 C780.129,58.536 783.479,55.744 783.098,51.411 C782.731,47.237 785.256,45.825 787.92,44.199 C803.897,34.445 821.532,29.077 839.624,25.109 C869.495,18.559 899.742,15.648 930.312,17.019 C954.211,18.09 977.395,23.354 1000.14,30.46 C1058.08,48.564 1108.11,79.606 1149.43,124.066 C1179.17,156.061 1202.93,192.083 1217.28,233.663 C1232.74,278.484 1230.35,322.268 1208.16,364.569 C1207.86,365.138 1207.48,365.659 1206.88,366.589 C1199.33,357.149 1189.51,353.343 1177.88,353.993 C1175.66,354.117 1174.77,353.167 1174.89,351.146 C1175.05,348.46 1172.13,345.263 1175.97,343.171 C1181.66,340.076 1183.29,337.405 1181.98,332.865 C1180.8,328.744 1177.13,327.329 1170.99,327.658 C1155.08,328.509 1139.48,325.986 1124.04,322.481 C1086.06,313.86 1050.11,299.498 1014.83,283.323 C993.804,273.68 972.876,263.774 953.243,251.453 C920.097,230.653 892.81,203.612 869.661,172.224 C853.399,150.175 839.681,126.638 828.195,101.782 C825.761,96.515 822.188,94.65 817.473,96.127 C813.482,97.378 811.623,101.243 812.963,106.731 C813.776,110.06 811.557,110.268 809.593,111.015 C786.274,119.878 764.491,131.524 744.597,146.651 C727,160.032 711.584,175.566 698.088,193.053 C696.719,194.827 695.927,197.235 693.451,198.005 C690.955,199.08 689.357,197.218 687.638,196.089 C674.023,187.145 667.056,173.771 663.114,158.54 C661.317,151.599 660.536,144.481 660.866,137.259 C661.009,134.131 661.887,131.455 663.865,129.006 C687.55,99.682 716.745,77.671 751.415,62.905 C754.327,61.664 757.352,60.766 760.425,60.034 C762.307,59.918 764.167,59.646 765.992,59.151" fill="#D7AA61"/>
    <path d="M142.241,720.865 C163.869,709.927 186.826,703.82 210.935,701.719 C241.001,699.099 270.419,702.173 299.021,711.837 C334.501,723.825 363.094,745.29 385.188,775.477 C385.545,775.965 386.209,776.399 385.572,777.438 C371.488,765.707 356.351,755.607 339.993,747.38 C333.147,743.937 326.118,740.91 318.914,738.316 C316.656,737.503 315.422,736.858 315.694,733.86 C316.082,729.579 313.744,726.532 309.214,725.837 C304.435,725.105 301.172,727.146 300.032,732.098 C296.704,746.559 292.304,760.646 286.545,774.335 C285.017,777.966 284.073,779.254 280.061,776.551 C269.914,769.715 258.769,771.351 250.305,780.249 C248.744,781.89 247.334,783.674 245.378,785.946 C244.067,773.404 243.279,761.521 241.161,749.807 C240.539,746.373 239.982,742.919 239.154,739.533 C237.974,734.71 233.919,732.079 229.505,733.037 C225.128,733.986 222.459,738.201 223.47,743.013 C228.18,765.436 229.753,788.105 229.251,810.978 C228.928,825.719 229.074,825.609 214.599,826.919 C205.065,827.781 195.967,830.347 187.614,835.178 C175.14,842.393 171.502,855.633 178.488,868.234 C182.991,876.355 189.185,883.103 196.022,889.237 C198.893,891.812 200.049,893.397 196.244,896.276 C191.201,900.093 188.92,905.858 188.435,911.954 C187.501,923.68 189.739,934.842 196.244,944.853 C199.299,949.555 203.337,953.569 208.658,955.287 C212.795,956.623 213.334,958.966 213.393,962.616 C213.623,976.942 213.91,991.226 210.235,1005.28 C203.619,1030.59 187.986,1046.61 162.062,1051.42 C136.734,1056.12 111.729,1054.72 87.497,1045.21 C86.753,1044.91 86.085,1044.43 85.381,1044.04 C82.122,1041.2 78.098,1039.51 74.74,1036.75 C56.69,1021.95 45.872,1002.61 39.387,980.604 C35.521,967.485 33.36,954.082 32.833,940.332 C30.37,876.094 50.458,819.201 88.873,768.421 C101.967,751.113 117.177,735.73 136.166,724.616 C138.136,723.283 140.313,722.276 142.241,720.865" fill="#DCAE53"/>
    <path d="M836.963,786.921 C839.845,793.017 843.785,798.284 849.463,802.333 C845.041,805.925 841.422,809.8 839.508,814.948 C836.555,822.887 839.296,829.995 847.048,835.705 C848.267,836.602 852.105,836.758 850.083,839.406 C847.988,842.148 849.734,847.546 843.33,847.585 C823.198,847.707 803.07,848.489 782.942,849.065 C741.025,850.265 699.108,851.496 657.191,852.711 C656.526,852.731 655.848,852.647 655.194,852.738 C647.54,853.807 642.244,852.874 639.073,843.707 C635.518,833.432 625.383,829.561 612.906,831.159 C609.417,831.606 608.559,830.939 608.012,827.473 C606.879,820.298 601.242,815.482 593.304,814.852 C589.319,814.536 588.521,813.025 588.562,809.347 C589.015,768.882 589.298,728.415 589.64,687.948 C589.857,662.136 590.085,636.323 590.331,610.511 C590.376,605.851 590.712,601.188 590.575,596.537 C590.486,593.527 591.783,593.091 594.42,593.006 C625.852,591.993 657.28,590.877 688.708,589.747 C732.275,588.181 775.841,586.568 819.408,584.998 C842.688,584.158 865.971,583.405 889.247,582.485 C891.481,582.397 892.367,582.876 892.153,585.096 C892.089,585.756 892.144,586.428 892.144,587.095 C892.144,642.076 892.144,697.058 892.144,752.04 C892.144,753.52 892.144,755 892.144,756.839 C882.645,754.164 873.361,754.727 864.091,755.017 C863.863,754.765 863.625,754.491 863.595,754.175 C862.927,747.065 860.944,745.868 854.158,748.452 C851.97,749.285 850.088,750.698 847.979,751.656 C844.547,753.215 842.915,752.174 843.845,748.62 C846.67,737.828 841.981,729.578 835.433,721.828 C830.378,715.845 830.314,713.412 835.025,706.792 C837.864,705.956 838.912,703.827 839.114,701.094 C839.178,700.637 839.286,700.189 839.408,699.745 C839.675,698.849 839.833,697.931 839.955,697.002 C842.14,690.172 843.769,683.223 843.874,676.026 C843.95,670.871 843.374,665.642 841.364,660.944 C838.421,654.066 826.704,652.379 821.626,657.857 C815.488,664.478 813.282,672.988 811.661,681.43 C810.412,687.932 808.729,694.41 808.351,701.086 C808.204,703.684 806.699,704.987 804.005,704.675 C799.189,704.115 794.378,704.003 789.551,704.631 C786.376,705.044 784.852,703.23 784.667,700.332 C784.263,693.988 782.213,687.943 781.361,681.727 C780.531,675.679 778.604,670.09 776.528,664.476 C775.775,662.439 774.834,660.389 773.329,658.858 C770.178,655.654 766.693,651.781 761.819,653.427 C756.554,655.205 751.939,657.952 750.212,664.527 C747.693,674.121 750.94,682.513 753.67,691.174 C755.873,698.164 758.341,705.066 760.74,711.989 C761.889,715.305 761.667,718.201 759.287,720.805 C756.782,723.547 755.462,727.045 753.324,730.014 C752.126,731.802 751.589,733.846 751.079,735.899 C750.155,742.188 749.952,748.456 751.155,754.749 C751.818,758.214 750.89,758.962 747.46,758.056 C745.838,757.628 744.389,756.792 742.926,756.001 C740.844,754.874 738.645,754.16 736.255,754.209 C730.936,754.319 728.425,758.531 731.121,763.135 C734.597,769.071 739.638,773.708 744.402,778.576 C751.137,785.457 758.419,791.702 766.002,797.607 C768.272,799.375 767.796,801.898 767.592,804.067 C766.705,813.507 766.373,822.968 766.055,832.431 C767.29,836.789 768.095,837.145 773.921,835.892 C782.337,834.55 790.602,837.61 799.046,836.618 C806.274,835.769 813.561,836.002 820.839,836.437 C825.029,836.687 826.453,835.131 826.586,830.808 C826.662,828.323 826.281,825.843 826.335,823.354 C826.799,821.005 827.094,818.652 826.423,816.287 C826.223,809.846 826.796,803.416 826.582,796.956 C826.43,792.39 831.351,788.092 836.963,786.921" fill="#FEFAF9"/>
    <path d="M1079.98,675.085 C1094.88,676.179 1109.34,679.671 1122.6,686.254 C1128.46,689.162 1133.44,689.73 1139.53,688.953 C1163.23,685.928 1186.3,690.025 1208.97,696.441 C1244.37,706.464 1275.54,724.271 1302.07,749.745 C1329.14,775.745 1347.02,807.02 1352.54,844.481 C1358.8,886.909 1352.77,927.137 1328.32,963.331 C1310.28,990.027 1285.37,1008.48 1256.28,1021.66 C1249.02,1024.96 1242.12,1029.07 1234.36,1031.21 C1229.07,1032.67 1223.81,1033.79 1218.2,1033.19 C1211.35,1032.46 1207.29,1028.78 1205.15,1022.55 C1202.37,1014.47 1202.58,1006.11 1203.36,997.819 C1204.58,984.709 1207.82,971.962 1211.19,959.262 C1211.86,956.754 1213.04,955.018 1215.38,953.516 C1226.94,946.067 1230.34,934.23 1232.13,921.521 C1233.25,913.61 1230.07,906.147 1230.18,898.365 C1230.2,896.575 1229.14,895.134 1227.75,894.175 C1217.58,887.155 1212.84,876.551 1208.82,865.503 C1202.13,847.084 1199.05,827.903 1197.21,808.496 C1196.81,804.174 1195.26,800.98 1190.9,800.061 C1186.38,799.108 1183.28,801.188 1181.34,805.392 C1180.03,808.251 1178.58,811.12 1176.74,813.655 C1167.93,825.763 1154.86,825.945 1145.37,814.245 C1138.45,805.709 1135.36,795.556 1133.14,785.072 C1130.18,771.155 1129.44,757.055 1129.94,742.868 C1130,741.371 1130.11,739.846 1129.9,738.375 C1129.16,733.107 1123.99,729.66 1119.31,731.716 C1108.35,736.524 1096.77,739.66 1085.92,744.798 C1067.91,753.329 1051.31,763.961 1036.03,776.71 C1029.85,769.643 1029.16,759.891 1034.73,752.41 C1042.41,742.108 1053.65,738.25 1065.67,735.981 C1065.99,735.922 1066.32,736.083 1066.65,736.141 C1067.01,736.205 1067.27,736.364 1067.95,737.735 C1058.76,728.965 1051.04,720.472 1047.42,709.156 C1043.63,697.326 1048.14,687.127 1059.06,680.962 C1065.61,677.267 1072.68,675.872 1079.98,675.085" fill="#C9A76F"/>
    <path d="M1183.64,830.322 C1186.21,845.193 1189.19,859.131 1194.2,872.539 C1196.06,877.523 1198.07,882.458 1200.84,887.019 C1202.09,889.081 1202.1,889.893 1199.39,890.572 C1193.48,892.054 1191.04,895.709 1192.18,900.48 C1193.25,904.923 1197.05,906.954 1202.75,906.127 C1212.59,904.698 1216.55,908.176 1216.25,917.986 C1216.11,922.356 1215.19,926.589 1213.67,930.651 C1210.01,940.408 1203.22,943.781 1193.09,941.059 C1191.33,940.587 1189.58,939.973 1187.79,939.759 C1183.56,939.257 1180.53,941.202 1179.35,945.176 C1178.13,949.316 1179.57,952.825 1183.58,954.758 C1185.66,955.756 1187.95,956.678 1190.2,956.825 C1194.77,957.122 1194.76,959.152 1193.77,962.888 C1189.5,978.836 1186.35,994.962 1187.06,1011.63 C1187.41,1019.88 1189.26,1027.7 1193.4,1035.48 C1179.54,1037.88 1166.04,1038.17 1152.48,1037.32 C1116.38,1035.07 1081.8,1027.11 1049.7,1009.88 C1039.85,1004.59 1030.62,998.368 1022.28,990.886 C1021.38,990.079 1018.48,989.196 1021.6,987.454 C1035.49,979.698 1039.22,961.027 1033.05,944.385 C1026.02,925.402 1012.2,913.195 994.151,905.09 C983.283,900.211 983.365,900.102 985.399,888.082 C989.957,861.155 1001.91,837.651 1019.05,816.731 C1042.98,787.528 1072.75,766.31 1108.11,753.006 C1113.67,750.914 1113.76,751.001 1113.92,757.048 C1114.42,775.473 1116.79,793.568 1124.43,810.536 C1130.39,823.786 1139.28,834.207 1154.12,837.95 C1164.93,840.676 1174.5,837.918 1183.64,830.322" fill="#FEF8EA"/>
    <path d="M348.438,718.09 C328.751,705.278 307.426,696.295 284.567,690.993 C282.11,690.423 281.331,689.482 281.335,687.032 C281.395,647.39 281.411,607.748 281.309,568.107 C281.302,565.112 282.436,564.968 284.848,565.213 C335.992,570.407 387.14,575.563 438.291,580.678 C482.33,585.081 526.37,589.475 570.426,593.697 C573.956,594.035 574.747,595.208 574.715,598.508 C574.082,662.269 573.565,726.032 572.972,789.794 C572.936,793.749 572.47,797.699 572.204,801.652 C568.506,801.058 564.809,800.465 561.111,799.871 C559.933,798.594 559.332,797.02 559.166,795.354 C558.059,784.249 555.743,773.328 554.171,762.305 C553.368,760.406 557.384,759.98 555.569,757.642 C555.133,757.08 555.066,756.696 553.908,756.98 C550.544,751.197 549.807,744.543 547.763,738.325 C546.728,735.176 549.721,734.766 551.166,733.849 C547.303,733.867 544.689,730.808 543.737,724.518 C543.817,724.041 544.026,723.63 544.369,723.29 C547.372,720.739 546.373,718.222 543.904,716.25 C541.621,714.427 540.406,712.353 540.385,709.476 C540.37,707.405 539.589,705.567 538.346,703.946 C531.79,695.394 525.622,686.533 518.277,678.605 C516.903,677.122 515.331,675.662 513.436,675.163 C504.015,672.683 495.488,667.593 485.409,666.743 C479.914,666.28 475.216,667.621 470.569,669.387 C455.878,674.968 444.016,684.836 432.702,695.433 C431.202,696.836 429.819,698.181 429.86,700.437 C429.878,701.459 429.527,702.466 428.823,703.189 C424.813,707.305 422.52,712.539 419.475,717.286 C417.29,720.692 415.465,720.928 412.901,717.824 C408.188,712.118 402.179,710.394 395.03,709.482 C389.192,708.737 383.51,706.66 377.441,707.052 C375.609,707.17 373.954,707.31 372.187,708.112 C365.561,711.118 358.773,713.777 352.723,717.917 C351.304,718.888 349.887,718.563 348.438,718.09" fill="#FEFEFE"/>
    <path d="M400.394,988.702 C367.983,1021.79 281.873,1048.52 216.097,1033.36 C221.341,1023.79 225.164,1013.77 227.206,1003.13 C229.794,989.642 230.395,976.03 229.292,962.377 C228.985,958.587 229.789,956.539 233.725,955.928 C235.305,955.683 236.915,954.9 238.257,953.988 C241.391,951.859 242.225,948.691 241.19,945.195 C240.137,941.636 237.629,939.653 233.791,939.725 C232.638,939.747 231.428,939.819 230.351,940.183 C223.404,942.527 216.223,943.818 211.001,937.438 C204.817,929.883 202.897,920.778 205.121,911.152 C206.133,906.772 210.033,905.913 213.795,905.959 C218.084,906.012 222.415,906.383 226.64,907.118 C240.033,909.448 250.214,903.98 255.386,891.43 C259.206,882.161 259.655,872.302 260.068,862.521 C260.24,858.43 261.595,857.551 265.311,857.865 C273.428,858.551 281.539,859.05 289.716,858.076 C308.806,855.802 318.418,842.133 313.731,823.475 C311.09,812.959 305.759,803.784 299.14,795.353 C297.062,792.706 296.567,790.619 298.168,787.437 C303.252,777.33 306.856,766.6 310.573,755.935 C311.334,753.752 311.921,752.648 314.683,753.787 C366.355,775.079 405.939,809.094 427.856,861.535 C433.74,875.614 436.448,890.496 436.554,905.807 C436.574,908.697 436.581,910.439 432.384,910.201 C411.624,909.024 391.502,925.933 386.222,948.443 C384.64,955.185 384.504,961.975 385.734,968.762 C387.328,977.555 391.364,984.7 400.394,988.702" fill="#FEF8EA"/>
    <path d="M348.438,718.09 C354.051,716.739 358.83,713.36 363.634,710.606 C373.127,705.165 382.47,704.306 392.375,708.035 C394.448,708.815 396.239,708.258 398.146,708.436 C404.826,709.062 410.25,712.062 414.111,717.365 C415.997,719.956 417.157,719.412 418.294,717.353 C421.233,712.037 426.124,707.024 427.577,701.982 C429.579,695.035 434.759,692.485 438.804,688.475 C443.092,684.223 448.206,680.729 453.227,677.191 C458.612,673.396 464.506,671.002 470.175,668.129 C479.588,663.361 489.481,664.517 498.726,668.929 C502.695,670.823 506.93,671.281 510.927,672.826 C514.754,674.307 517.836,676.313 520.626,679.337 C527.338,686.609 532.692,694.918 538.92,702.551 C540.7,704.732 542.216,707.051 541.577,710.194 C541.269,711.708 542.013,713.771 543.107,714.145 C547.582,715.671 546.808,719.828 548.167,723.174 C546.816,723.423 545.486,723.669 544.155,723.915 C542.984,721.909 543.635,719.384 542.316,717.42 C543.659,719.366 542.811,721.95 544.192,723.885 C545.039,726.661 545.407,729.57 548.193,731.486 C549.25,732.213 549.572,733.512 551.279,732.577 C552.101,732.127 553.18,732.596 553.155,734.003 C553.11,736.445 551.88,734.115 551.54,734.42 C550.27,735.557 548.025,735.802 549.07,738.772 C551.14,744.655 552.593,750.756 554.301,756.768 C555.639,757.955 554.586,759.598 555.094,760.943 C557.7,773.826 559.701,786.803 561.112,799.871 C550.519,800.913 540.963,804.653 532.379,810.918 C527.683,811.76 523.048,810.589 518.491,810.007 C506.626,808.493 494.541,808.286 482.924,805.308 C474.15,803.059 465.074,803.503 456.349,801.395 C455.881,801.395 455.41,801.446 454.964,801.574 C453.397,803.104 454.629,804.723 454.89,806.248 C455.846,811.828 457.645,817.249 458.283,822.884 C458.829,827.717 457.556,828.887 452.786,828.439 C449.659,828.146 446.835,828.453 443.68,829.58 C439.031,831.241 433.845,831.165 429.383,827.97 C425.404,823.644 424.707,818.069 423.058,812.717 C419.375,800.769 413.501,789.735 406.956,779.083 C391.86,754.518 372.445,734.102 348.438,718.09" fill="#AAD874"/>
    <path d="M836.963,786.921 C835.58,789.287 832.597,789.002 830.695,791.153 C826.166,796.273 828.084,802.105 827.82,807.632 C827.691,810.342 827.217,813.042 827.313,815.764 C827.797,818.176 827.834,820.585 827.291,822.993 C827.193,824.634 827.867,826.135 827.871,827.842 C827.891,838.14 827.439,838.38 817.382,837.727 C812.252,837.393 807.054,837.046 801.828,837.782 C792.305,839.122 782.827,836.329 773.279,837.01 C769.42,837.874 766.178,837.526 765.13,832.865 C765.188,825.433 764.756,817.976 765.851,810.588 C766.745,804.553 767.388,799.196 760.988,794.918 C755.244,791.078 750.349,785.938 745.395,780.922 C740.379,775.844 735.258,770.951 730.926,765.24 C728.643,762.231 727.261,759.219 729.728,755.736 C732.273,752.142 735.958,752.326 739.647,753.16 C743.375,754.003 746.192,757.115 750.526,757.61 C748.559,750.313 748.531,743.053 749.995,735.784 C751.996,734.247 751.195,731.735 752.075,729.808 C754.37,726.396 755.723,722.421 758.787,719.436 C760.469,717.798 760.727,715.637 759.812,713.08 C755.733,701.679 751.939,690.176 748.023,678.716 C744.846,669.419 752.259,654.169 761.22,651.609 C764.798,650.587 772.545,654.557 775.132,658.981 C778.907,665.439 781.365,672.325 782.381,679.833 C783.36,687.072 785.95,694.069 786.03,701.465 C786.057,703.959 788.019,703.721 789.124,703.478 C794.098,702.388 799.052,702.578 803.929,703.572 C806.632,704.123 807.033,703.128 807.24,700.874 C808.296,689.347 810.288,677.954 814.281,667.086 C816.462,661.151 820.088,655.901 825.926,652.638 C827.375,651.828 828.652,651.633 830.146,652.386 C831.777,653.209 833.403,654.185 835.15,654.613 C841.76,656.235 843.29,660.877 844.369,667.044 C846.251,677.804 844.008,687.816 841.155,697.914 C840.575,698.466 839.878,698.951 840.015,699.912 C840.09,700.227 840.119,700.546 840.101,700.87 C837.974,702.376 837.777,705.134 836.148,706.963 C833.71,709.276 833.72,712.663 832.45,715.491 C831.735,717.082 833.297,717.709 834.232,718.631 C839.733,724.058 843.835,730.29 845.711,737.939 C846.834,742.522 845.401,746.747 844.469,751.428 C846.474,751.68 847.612,750.346 848.987,749.637 C850.902,748.649 852.81,747.6 854.827,746.868 C857.783,745.796 860.966,744.532 863.743,747.059 C866.367,749.446 864.619,752.326 864.091,755.017 C859.197,756.399 854.122,757.071 849.415,759.201 C837.078,764.784 832.871,774.023 836.963,786.921" fill="#FFC7BF"/>
    <path d="M658.316,421.898 C664.197,412.18 670.818,403.149 680.117,396.278 C705.403,377.595 737.103,382.87 755.131,408.857 C762.962,420.147 768.378,432.546 768.768,446.263 C769.112,458.359 764.322,469.195 756.704,478.752 C747.675,490.077 737.331,499.356 722.444,501.825 C707.831,504.249 694.178,500.442 680.837,494.949 C671.334,476.98 665.635,457.691 661.21,437.981 C660.018,432.671 659.269,427.261 658.316,421.898" fill="#FFD5BA"/>
    <path d="M1131.12,498.845 C1125.04,499.161 1119.52,501.964 1113.31,502.246 C1096.78,502.997 1081.64,499.09 1068.35,489.44 C1057.78,481.761 1051.15,471.05 1048.74,458.091 C1046.87,448.054 1048.35,438.263 1052.01,428.782 C1060.16,407.684 1074.17,392.608 1096.54,386.745 C1116.47,381.521 1138.1,390.041 1149.86,407.112 C1151.92,410.109 1154.08,413.045 1156.19,416.009 C1153.43,440.785 1146.6,464.458 1136.78,487.304 C1135.09,491.236 1133.01,495.002 1131.12,498.845" fill="#FFD5BA"/>
    <path d="M673.315,525.061 C672.669,540.388 670.672,555.174 667.098,569.764 C666.228,573.315 664.86,574.838 660.81,574.928 C635.861,575.482 610.902,576.063 585.984,577.358 C576.266,577.863 566.773,577.127 557.175,576.264 C553.516,575.936 553.722,574.411 554.305,571.868 C566.244,519.739 596.783,483.719 646.956,464.574 C650.347,463.28 651.389,463.951 652.421,467.34 C657.231,483.133 663.567,498.332 671.668,512.726 C674.021,516.907 672.801,521.167 673.315,525.061" fill="#D7AA61"/>
    <path d="M761.117,60.943 C740.027,67.818 721.235,78.911 703.643,92.219 C689.068,103.244 675.969,115.774 664.643,130.145 C663.586,131.487 662.538,132.76 662.452,134.476 C661.437,154.764 666.341,173.138 680.328,188.423 C684.019,192.456 688.589,195.477 693.451,198.005 C690.455,204.504 686.094,210.127 681.975,215.906 C679.533,217.455 677.093,216.264 674.74,215.744 C659.648,212.413 645.607,206.412 632.257,198.72 C626.594,195.457 625.991,195.533 623.638,201.609 C611.766,232.27 604.061,263.698 604.416,296.925 C604.635,317.415 606.415,337.454 613.98,356.673 C614.417,357.784 614.649,358.904 614.243,360.076 C611.427,363.05 610.914,359.682 610.282,358.365 C604.104,345.497 598.92,332.233 595.207,318.435 C592.269,307.52 589.118,296.629 589.01,285.18 C588.195,283.183 589.213,280.979 588.314,278.991 C587.743,271.297 587.742,263.602 588.315,255.908 C589.204,253.914 588.211,251.713 588.998,249.709 C590.35,227.911 596.879,207.497 605.623,187.683 C615.325,165.7 628.362,145.765 644.13,127.764 C668.877,99.513 697.145,75.941 733.836,64.571 C741.338,62.246 748.971,60.157 756.921,59.819 C758.433,59.772 760.334,58.271 761.117,60.943" fill="#F4EADB"/>
    <path d="M614.243,360.076 C608.069,348.406 606.131,335.581 604.187,322.78 C602.328,310.547 602.959,298.206 603.144,285.914 C603.449,265.524 607.948,245.798 613.524,226.301 C616.265,216.715 619.765,207.388 623.519,198.148 C624.996,194.51 626.227,193.293 630.257,195.806 C646.192,205.74 663.437,212.547 681.975,215.906 C662.843,248.209 650.64,283.102 643.412,319.805 C641.461,329.71 639.55,339.661 638.943,349.773 C638.767,352.689 637.768,353.864 634.718,353.722 C627.172,353.372 620.286,355.44 614.243,360.076" fill="#ECD8B9"/>
    <path d="M137.061,724.731 C108.469,744.029 86.661,769.548 69.654,799.245 C48.324,836.492 35.971,876.479 34.049,919.554 C32.691,950 36.814,979.303 51.485,1006.46 C59.29,1020.9 69.99,1032.83 83.875,1041.78 C84.592,1042.24 86.463,1042.25 85.379,1044.04 C47.568,1030.21 27.019,1001.97 19.37,963.626 C10.927,921.309 17.989,880.559 34.181,841.175 C53.701,793.697 84.217,755.204 128.407,728.22 C130.949,726.668 133.62,725.328 136.232,723.89 C136.487,723.721 136.754,723.603 136.93,723.709 C137.372,723.975 137.222,724.362 137.061,724.731" fill="#FEFEFE"/>
    <path d="M956.563,865.977 C948.801,865.15 941.039,864.316 933.275,863.502 C930.392,863.2 929.909,862.176 931.257,859.41 C941.438,838.506 941.083,817.058 933.768,795.493 C932.461,791.64 931.878,790.322 936.93,790.262 C958.736,790 980.432,788.379 1001.58,782.519 C1003.56,781.969 1004.22,782.853 1005.15,784.095 C1007.67,787.432 1010.44,790.588 1013.87,792.957 C1016.45,794.737 1015.87,795.87 1014.08,797.837 C996.917,816.747 983.468,837.933 975.394,862.293 C974.663,864.5 973.528,865.227 971.538,865.239 C966.556,865.267 961.573,865.248 956.59,865.248 C956.581,865.491 956.572,865.734 956.563,865.977" fill="#FEFEFE"/>
    <path d="M877.275,813.752 C881.117,814.009 886.425,814.468 891.742,814.69 C897.398,814.926 900.967,812.244 901.526,807.63 C902.098,802.91 899.43,799.685 893.745,798.546 C884.788,796.752 875.636,795.828 866.951,792.829 C861.737,791.028 856.683,788.857 853.573,783.824 C850.1,778.203 850.639,776.035 856.822,773.737 C867.283,769.849 878.039,769.472 888.688,772.662 C908.906,778.719 918.674,793.697 921.978,813.499 C924.211,826.882 923.253,840.093 916.856,852.417 C910.773,864.135 896.752,871.44 885.427,869.032 C882.376,868.383 879.994,867.418 878.862,863.899 C877.502,859.669 873.985,857.177 869.656,856.293 C867.342,855.821 865.74,854.839 864.541,852.827 C862.62,849.605 863.321,847.503 866.93,846.442 C868.044,846.115 869.21,845.961 870.311,845.603 C873.346,844.618 875.648,842.853 876.196,839.489 C876.784,835.878 875.839,832.729 872.545,830.897 C868.195,828.478 863.643,826.425 859.234,824.109 C857.517,823.208 854.783,822.527 854.975,820.411 C855.204,817.883 857.548,816.216 859.998,815.331 C865.118,813.481 870.473,813.705 877.275,813.752" fill="#FEF8EA"/>
    <path d="M919.25,771.874 C915.664,769.152 912.847,766.819 909.824,764.793 C908.094,763.633 908.122,762.145 908.124,760.466 C908.136,746.802 908.252,733.137 908.043,719.476 C907.993,716.183 909.366,715.626 912.088,715.506 C920.601,715.131 928.943,713.822 937.012,710.89 C956.627,703.762 968.472,687.329 969.218,666.561 C969.654,654.422 970.631,642.304 971.229,630.169 C971.364,627.425 972.209,626.125 975.131,625.556 C983.448,623.939 991.716,622.034 999.938,619.983 C1002.95,619.232 1003.12,620.435 1003.16,622.866 C1003.55,644.008 1004.03,665.149 1004.51,686.289 C1004.67,693.444 1004.99,700.597 1005.05,707.752 C1005.07,709.236 1006.29,712.03 1003.15,711.778 C1000.56,711.571 997.29,713.88 995.491,709.595 C991.65,700.443 984.4,695.54 974.61,694.983 C964.079,694.384 956.255,699.285 951.54,708.566 C950.106,711.389 948.933,712.246 945.75,712.021 C935.502,711.297 927.473,715.546 922.598,724.589 C917.846,733.404 918.7,742.202 924.319,750.522 C925.065,751.628 926.907,752.486 925.356,754.287 C921.148,759.174 919.808,765.134 919.25,771.874" fill="#FFA89A"/>
    <path d="M589.24,876.497 C576.129,876.359 563.466,874.124 551.367,868.968 C546.596,866.935 542.185,864.346 538.302,860.88 C530.551,853.963 528.501,844.985 533.004,835.664 C538.583,824.113 548.245,818.048 560.692,816.138 C564.33,815.581 565.927,817.369 565.654,821.022 C565.425,824.102 564.163,826.766 562.692,829.397 C561.479,831.568 560.198,833.736 559.308,836.045 C557.693,840.24 559.25,844.557 562.776,846.412 C566.544,848.394 571.029,847.2 573.586,843.245 C576.71,838.413 580.358,834.212 585.657,831.692 C587.638,830.75 589.929,829.671 591.779,831.043 C593.675,832.45 592.269,834.789 591.828,836.588 C591.201,839.148 589.973,841.554 589.202,844.087 C588.018,847.977 588.745,851.455 592.381,853.675 C595.899,855.824 599.434,855.516 602.364,852.484 C605.167,849.584 608.678,848.312 612.45,847.444 C619.739,845.765 623.603,847.169 625.911,852.374 C628.841,858.98 627.383,865.342 621.864,869.249 C615.689,873.621 608.469,874.924 601.179,875.774 C597.225,876.234 593.221,876.27 589.24,876.497" fill="#FEF8EA"/>
    <path d="M429.383,827.97 C432.972,828.394 436.558,829.084 440.151,829.113 C441.602,829.126 443.498,830.087 444.927,827.263 C445.963,825.214 450.106,826.58 452.56,827.193 C457.7,828.475 457.811,826.03 456.991,822.341 C455.592,816.051 454.171,809.766 452.78,803.474 C452.458,802.018 451.158,800.131 454.145,799.926 C454.514,800.313 454.874,800.817 455.334,800.018 C469.207,801.348 482.854,804.142 496.607,806.217 C507.372,807.842 518.331,808.445 529.169,809.839 C530.313,809.987 531.519,809.932 532.379,810.919 C521.323,820.695 513.976,832.281 514.805,847.695 C514.955,850.475 513.278,849.704 511.968,849.586 C496.916,848.234 481.868,846.832 466.82,845.441 C458.055,844.631 449.298,843.707 440.521,843.074 C438.036,842.895 436.754,842.032 435.705,839.781 C433.822,835.739 431.514,831.896 429.383,827.97" fill="#FEFEFE"/>
    <path d="M247.354,841.967 C244.449,847.01 244.762,852.45 244.393,857.667 C243.878,864.965 243.63,872.284 242.193,879.477 C241.741,881.74 241.096,884.03 240.12,886.112 C237.657,891.363 234.318,892.865 228.714,891.133 C217.694,887.728 209.273,880.439 201.562,872.268 C198.261,868.769 195.177,865.027 192.808,860.776 C189.851,855.468 190.61,852.31 195.827,849.082 C201.752,845.416 208.435,843.952 215.197,842.978 C223.289,841.813 231.445,841.249 239.498,843.226 C242.347,843.925 244.655,842.721 247.354,841.967" fill="#FF7164"/>
    <path d="M279.731,843.015 C271.645,841.068 262.984,843.22 254.749,840.451 C253.745,840.113 252.474,840.539 251.331,840.653 C250.34,840.752 249.244,841.071 249.286,839.461 C249.687,824.143 250.798,808.967 258.997,795.38 C263.842,787.352 268.136,786.387 274.938,792.589 C286.029,802.702 294.978,814.385 298.534,829.381 C300.038,835.723 297.646,839.753 291.302,841.332 C287.622,842.248 283.765,842.454 279.731,843.015" fill="#FF7164"/>
    <path d="M1079.98,675.085 C1075.7,676.337 1071.4,677.517 1067.15,678.858 C1061.02,680.793 1055.48,683.802 1051.44,688.925 C1045.55,696.374 1046.49,704.376 1050.03,712.43 C1054.17,721.856 1061.09,729.23 1068.56,736.576 C1059.82,738.272 1051.68,740.422 1044.48,745.119 C1032.44,752.96 1029.89,761.185 1035.36,774.346 C1035.68,775.096 1035.81,775.921 1036.03,776.71 C1035.4,777.242 1034.75,777.766 1034.13,778.309 C1027.42,784.157 1027.1,784.146 1020.73,777.64 C1020.03,776.929 1019.39,776.159 1018.78,775.378 C1010.13,764.424 1011.46,755.859 1023.09,748.341 C1029.15,744.428 1035.78,741.853 1042.92,740.672 C1046.86,740.019 1050.34,738.843 1051.59,734.399 C1052.85,729.909 1050.21,727.255 1047.34,724.562 C1041.37,718.947 1036.18,712.73 1032.8,705.161 C1028.29,695.068 1030.68,687.404 1040.34,682.081 C1052.72,675.256 1066.19,674.158 1079.98,675.085" fill="#FEFEFE"/>
    <path d="M1199.55,400.307 C1199.28,407.894 1198.8,414.838 1196.1,421.429 C1191.89,431.705 1182.21,438.239 1171.24,438.5 C1168.55,438.564 1169.1,437.325 1169.41,435.841 C1172.01,423.115 1173.68,410.257 1174.55,397.308 C1175.08,389.349 1175.39,381.369 1175.55,373.393 C1175.6,370.705 1176.69,370.045 1179.1,369.907 C1186.88,369.461 1192.93,373.144 1196.12,380.404 C1199,386.957 1199.25,393.934 1199.55,400.307" fill="#FEF8EA"/>
    <path d="M615.235,401.314 C615.695,394.23 616.026,387.739 618.343,381.571 C621.217,373.92 626.946,369.919 634.621,369.902 C636.997,369.897 638.204,370.297 638.224,373.133 C638.37,393.805 640.124,414.34 644.167,434.636 C644.833,437.976 643.766,438.546 640.597,438.126 C627.681,436.412 618.934,427.421 616.402,412.633 C615.73,408.709 615.571,404.698 615.235,401.314" fill="#FEF8EA"/>
    <path d="M984.3,914.75 C1003.59,918.959 1021.66,938.652 1023.86,957.55 C1024.91,966.514 1020.78,974.611 1013.61,977.998 C1011.73,978.886 1010.45,979.179 1008.91,977.297 C994.047,959.092 986.394,938.12 984.3,914.75" fill="#FEFEFE"/>
    <path d="M954.301,646.739 C953.364,656.635 954.251,665.965 951.834,674.907 C948.98,685.466 941.523,692.061 931.46,695.829 C924.858,698.301 917.945,699.05 910.954,699.488 C908.817,699.622 908.048,699.312 908.086,697.018 C908.208,689.702 908.171,682.383 908.104,675.066 C908.086,673.125 908.461,672.266 910.748,671.968 C933.652,668.987 938.015,666.434 954.301,646.739" fill="#FEFEFE"/>
    <path d="M417.342,969.231 C416.35,970.746 415.425,972.311 414.352,973.767 C409.769,979.982 402.813,979.204 399.312,972.058 C397.054,967.447 396.868,962.474 397.03,957.462 C397.56,941.024 411.248,925.053 427.146,922.345 C427.961,922.206 428.788,922.091 429.613,922.052 C435.062,921.794 435.605,922.392 434.449,927.8 C433.865,930.529 433.041,933.207 432.326,935.908 C427.815,947.233 422.817,958.339 417.342,969.231" fill="#FEFEFE"/>
    <path d="M954.96,753.463 C954.907,743.116 962.786,734.923 972.961,734.745 C983.11,734.568 992.007,743.26 991.947,753.294 C991.887,763.196 983.444,771.627 973.38,771.835 C963.442,772.04 955.012,763.633 954.96,753.463" fill="#FEFEFE"/>
    <path d="M1020.44,678.043 C1019.93,656.929 1019.44,637.011 1018.99,617.093 C1018.96,615.862 1018.53,614.352 1020.44,613.862 C1022.24,613.402 1022.71,614.667 1023.39,615.831 C1031.61,629.909 1038.84,644.487 1045.6,659.312 C1046.66,661.647 1046.14,662.378 1043.76,663.096 C1039.47,664.395 1035.4,666.29 1031.51,668.593 C1027.62,670.9 1024.2,673.748 1020.44,678.043" fill="#FEFEFE"/>
    <path d="M265.38,638.963 C265.38,653.615 265.421,668.267 265.319,682.918 C265.308,684.472 266.722,687.44 262.954,686.923 C260.396,686.572 257.264,687.571 257.291,682.828 C257.457,653.193 257.377,623.556 257.37,593.92 C257.37,592.042 257.142,589.84 260.062,590.581 C262.132,591.106 265.558,589.112 265.473,594.011 C265.215,608.991 265.379,623.979 265.38,638.963" fill="#FDFDFD"/>
    <path d="M943.522,629.866 C939.429,644.82 926.083,655.55 911.606,655.97 C909.236,656.039 907.944,655.968 908.059,652.981 C908.295,646.838 908.16,640.679 908.112,634.527 C908.097,632.706 908.126,631.391 910.643,631.386 C921.582,631.363 932.509,630.824 943.522,629.866" fill="#FEF8EA"/>
    <path d="M325.17,1044.71 C319.516,1060.29 308.128,1065.68 293.575,1060.38 C291.534,1059.64 289.555,1058.71 288.015,1057.14 C286.782,1055.88 284.736,1054.72 285.455,1052.7 C286.019,1051.12 288.085,1051.85 289.476,1051.65 C301.256,1049.91 312.968,1047.8 325.17,1044.71" fill="#FF7063"/>
    <path d="M973.706,718.752 C972.383,718.816 970.39,718.978 968.397,718.982 C967.374,718.984 966.113,720.324 965.341,718.714 C964.783,717.55 965.495,716.452 966.024,715.419 C968.803,710.001 975.941,709.312 979.728,714.099 C980.788,715.439 981.829,717.029 980.999,718.644 C980.228,720.146 978.604,718.782 977.365,718.912 C976.385,719.014 975.375,718.839 973.706,718.752" fill="#FDCA00"/>
    <path d="M935.599,736.209 C935.566,731.172 940.716,726.976 945.465,727.994 C947.636,728.459 948.34,729.248 946.664,731.227 C944.625,733.634 943.058,736.357 941.693,739.223 C941.12,740.426 941.328,742.716 939.397,742.528 C937.697,742.363 936.828,740.565 936.245,738.979 C935.905,738.054 935.787,737.048 935.599,736.209" fill="#FCCA00"/>
    <path d="M1002.53,727.87 C1006.34,728.091 1008.85,730.05 1010.46,733.515 C1011.88,736.577 1009.86,737.919 1008.03,739.671 C1006.07,741.55 1005.49,740.481 1004.59,738.724 C1003.39,736.394 1001.9,734.217 1000.54,731.969 C999.975,731.035 998.381,730.311 998.969,729.202 C999.572,728.067 1001.13,727.833 1002.53,727.87" fill="#FCCA00"/>
    <path d="M417.342,969.231 C417.79,963.216 421.503,958.443 423.782,953.175 C426.318,947.312 428.031,940.935 432.326,935.908 C429.637,948.053 424.696,959.184 417.342,969.231" fill="#FBF4E7"/>
    <path d="M945.331,774.53 C941.613,773.003 937.79,776.336 936.116,772.051 C934.664,768.333 936.537,765.441 939.712,762.999 C941.482,766.632 943.124,770.002 945.331,774.53" fill="#FDCA00"/>
    <path d="M761.117,60.943 C760.049,59.335 758.286,60.317 756.92,59.819 C759.872,58.614 762.926,58.799 765.992,59.151 C764.582,60.333 762.831,60.588 761.117,60.943" fill="#ECD8B9"/>
    <path d="M137.061,724.731 C136.784,724.451 136.508,724.17 136.232,723.89 C137.998,722.411 139.951,721.304 142.24,720.865 C141.073,722.903 139.013,723.744 137.061,724.731" fill="#D4C2A4"/>
    <path d="M588.314,278.991 C589.704,280.924 589.097,283.082 589.01,285.18 C588.095,283.194 588.111,281.103 588.314,278.991" fill="#ECD8B9"/>
    <path d="M588.998,249.709 C589.077,251.809 589.71,253.971 588.315,255.908 C588.152,253.798 587.982,251.688 588.998,249.709" fill="#ECD8B9"/>
    <path d="M905.607,562.141 C891.397,562.412 880.275,555.072 871.827,543.123 C863.008,530.651 858.617,516.413 856.107,501.523 C855.758,499.456 855.55,497.787 852.993,497.167 C849.51,496.321 848.217,493.622 848.904,490.265 C849.676,486.489 852.387,485.336 856.022,485.739 C870.257,487.319 884.526,488.092 898.86,487.962 C915.864,487.807 932.73,486.341 949.486,483.493 C954.454,482.649 957.739,484.817 957.565,489.561 C956.849,509.096 953.444,527.978 941.627,544.239 C933.061,556.025 921.332,562.112 905.607,562.141" fill="#6E4100"/>
    <path d="M769.916,381.952 C770.06,371.72 772.308,364.016 777.593,357.414 C778.933,355.74 779.01,354.491 778.257,352.548 C776.513,348.048 775.627,343.289 775.028,338.505 C774.57,334.844 776.033,332.233 779.862,331.659 C783.608,331.097 785.839,333.063 786.758,336.61 C787.132,338.056 787.482,339.517 787.693,340.993 C788.462,346.366 789.585,351.245 796.172,352.59 C798.52,353.069 800.434,355.202 801.921,357.221 C810.342,368.651 812.512,381.197 807.044,394.346 C801.969,406.549 787.151,409.116 777.733,399.907 C772.19,394.487 769.721,387.824 769.916,381.952" fill="#6E4100"/>
    <path d="M1044.09,380.083 C1043.55,386.257 1042.95,391.339 1040.33,395.968 C1034.44,406.405 1021.07,408.56 1012.23,400.454 C1003.01,391.993 1000.53,376.662 1008,363.663 C1011.81,357.05 1012.81,351.412 1010.19,344.61 C1009.43,342.63 1009.21,340.4 1009,338.259 C1008.66,334.832 1010.03,332.34 1013.61,331.711 C1017.32,331.06 1019.75,332.777 1020.67,336.369 C1021.59,339.904 1022.26,343.5 1023.12,347.049 C1023.5,348.632 1023.81,350.334 1025.79,350.879 C1035.69,353.605 1039.93,361.24 1042.34,370.294 C1043.27,373.803 1043.63,377.463 1044.09,380.083" fill="#6E4100"/>
    <path d="M806.649,211.871 C806.664,214.337 805.841,216.001 804.021,216.762 C801.924,217.639 799.893,217.405 798.068,215.687 C788.552,206.73 783.708,207.223 775.489,218.018 C773.787,220.254 771.608,220.61 769.315,219.774 C766.816,218.863 765.945,216.693 766.429,214.11 C767.726,207.181 776.911,200.637 786.648,199.647 C794.495,198.849 803.525,203.597 806.121,209.918 C806.431,210.672 806.553,211.503 806.649,211.871" fill="#6E4100"/>
    <path d="M904.022,384.815 C906.574,384.831 908.306,385.375 909.44,386.995 C911.149,389.435 912.878,391.879 914.353,394.461 C916.05,397.432 915.651,400.374 912.852,402.414 C909.861,404.594 906.806,404.067 904.504,401.201 C902.642,398.883 900.871,396.414 899.528,393.774 C897.344,389.481 900.108,384.883 904.022,384.815" fill="#6F4300"/>
    <path d="M952.845,122.124 C956.76,122.397 959.162,124.29 961.091,127.353 C979.578,156.706 1002.15,182.687 1027.35,206.387 C1057.71,234.943 1090.86,259.633 1128.67,277.635 C1142.06,284.012 1155.91,289.198 1170.31,292.821 C1174.53,293.882 1177.03,296.432 1177.06,300.9 C1177.09,304.986 1174.63,307.244 1171.01,308.517 C1169.15,309.171 1167.41,308.538 1165.64,308.085 C1137.78,300.986 1112.09,288.868 1087.89,273.647 C1031.56,238.218 984.895,192.795 948.207,137.207 C945.722,133.441 943.698,129.658 947.131,125.358 C948.676,123.423 950.777,122.551 952.845,122.124" fill="#6E4100"/>
    <path d="M707.131,747.13 C707.608,753.227 705.098,758.389 703.778,763.809 C703.189,766.226 700.747,766.791 699.518,768.955 C695.989,775.168 698.138,778.956 702.256,783.441 C710.909,792.866 709.664,807.643 699.144,816.81 C693.003,822.161 686.836,826.985 679.045,829.354 C674.806,830.643 677.8,833.643 677.177,835.762 C676.712,837.342 678.378,840.246 677.411,840.332 C674.59,840.586 673.103,843.269 670.005,843.155 C663.184,842.904 656.334,843.539 649.493,843.67 C647.775,843.703 645.766,844.018 644.657,841.994 C643.461,839.812 645.13,838.619 646.272,837.254 C646.891,836.515 647.502,835.307 648.237,835.208 C651.63,834.749 651.591,831.368 653.377,829.588 C651.405,827.658 649.341,825.926 646.551,825.21 C642.232,824.103 637.563,821.397 636.126,818.191 C632.419,809.917 628.357,801.417 632.682,791.417 C634.433,787.368 635.761,783.313 638.566,779.814 C639.939,778.102 640.387,776.152 639.364,773.806 C635.861,765.773 634.25,757.084 630.569,749.053 C627.019,741.312 632.146,729.63 639.868,726.196 C643.542,724.562 648.403,726.517 651.713,730.741 C654.987,734.919 656.608,739.817 657.185,744.876 C657.933,751.437 660.779,757.65 660.289,764.372 C660.111,766.82 661.701,766.558 663.17,766.386 C666.954,765.942 670.708,765.411 674.416,766.926 C676.63,767.831 677.016,766.268 677.052,764.62 C677.25,755.603 679.466,746.956 682.221,738.479 C683.899,733.315 687.389,729.233 692.14,726.4 C694.94,724.731 696.592,727.773 698.944,728.218 C703.581,729.095 706.403,731.896 706.31,737.213 C706.252,740.603 708.19,743.908 707.131,747.13" fill="#FFCF71"/>
    <path d="M836.148,706.963 C836.301,704.176 835.714,700.909 840.101,700.87 C840.121,703.769 840.256,706.742 836.148,706.963" fill="#FFDED9"/>
    <path d="M765.13,832.865 C766.804,836.295 769.715,837.292 773.278,837.01 C767.564,838.728 765.047,837.447 765.13,832.865" fill="#FFD5D0"/>
    <path d="M752.075,729.808 C751.358,731.792 753.97,734.933 749.996,735.784 C750.299,733.656 750.823,731.605 752.075,729.808" fill="#FFD5D0"/>
    <path d="M827.291,822.993 C827.297,820.584 827.304,818.175 827.312,815.765 C828.58,818.178 828.594,820.588 827.291,822.993" fill="#FFDAD4"/>
    <path d="M840.015,699.912 C839.288,699.73 838.225,699.632 838.671,698.578 C839.101,697.564 840.287,698.037 841.155,697.914 C841.112,698.772 840.892,699.53 840.015,699.912" fill="#FFDED9"/>
    <path d="M1093.69,940.933 C1074.06,941.771 1061.86,924.873 1061.24,903.729 C1060.77,887.863 1077.77,871.869 1094.25,871.845 C1113.85,871.818 1131.64,887.533 1130.96,905.078 C1130.25,923.34 1112.77,941.937 1093.69,940.933" fill="#FFD9B4"/>
    <path d="M1069.13,845.418 C1068.58,851.79 1067.04,858.533 1059.88,862.176 C1054.88,864.717 1049.82,864.677 1045.42,860.897 C1039.76,856.02 1037.78,849.611 1039.53,842.439 C1040.91,836.769 1044.5,832.306 1049.37,829.082 C1056.05,824.663 1062.75,826.461 1066.55,833.543 C1068.4,836.989 1069.1,840.712 1069.13,845.418" fill="#6E4100"/>
    <path d="M1110.26,779.079 C1110.39,782.359 1109.12,784.716 1105.63,784.969 C1102.46,785.198 1100.62,783.354 1100.32,780.249 C1099.9,775.973 1098.71,772.663 1093.82,771.477 C1091.02,770.799 1090.3,768.021 1091.1,765.33 C1092.03,762.167 1094.56,761.544 1097.47,762.047 C1104.44,763.253 1110.23,771.005 1110.26,779.079" fill="#6F4300"/>
    <path d="M346.032,667.764 C344.316,668.134 343.515,667.881 344.17,665.783 C344.719,664.02 346.84,664.055 347.515,662.369 C336.182,664.387 338.48,653.221 333.806,648.807 C335.039,647.23 336.307,649.957 337.519,648.181 C334.009,647.422 333.639,645.614 334.421,642.141 C335.222,638.58 333.719,634.599 335.254,630.912 C335.509,629.025 336.629,627.811 338.288,627.018 C340.061,627.721 340.686,626.193 341.259,625.21 C345.44,618.035 352.179,616.479 359.683,616.816 C363.915,617.007 368.487,616.061 372.162,619.016 C377.649,623.428 384.188,626.593 388.508,632.392 C391.823,636.841 390.559,645.994 386.21,648.994 C385.026,649.81 385.063,650.95 384.688,651.96 C380.504,663.206 374.443,667.398 362.72,667.046 C360.14,671.002 356.547,664.636 353.267,668.08 C352.066,669.341 353.786,666.262 352.739,665.569 C350.527,664.898 351.69,670.883 348.272,667.834 C347.546,667.163 346.816,666.607 346.032,667.764" fill="#FFD482"/>
    <path d="M555.094,760.943 C553.914,759.726 554.262,758.218 554.301,756.768 C554.979,756.783 555.837,754.479 556.088,756.419 C556.338,758.352 558.022,758.843 558.557,760.222 C557.626,761.883 555.996,759.49 555.094,760.943" fill="#DEEFCB"/>
    <path d="M555.197,740.8 C555.103,741.819 554.88,742.533 553.702,742.129 C552.566,741.74 551.412,741.202 551.716,739.824 C551.843,739.248 552.867,738.492 553.495,738.482 C554.982,738.456 555.059,739.783 555.197,740.8" fill="#CFE8B2"/>
    <path d="M562.082,784.447 C560.898,782.348 560.787,779.864 559.139,777.981 C561.918,779.711 561.918,779.711 562.082,784.447" fill="#D1E9B7"/>
    <path d="M338.288,627.018 C337.402,628.414 337.207,630.348 335.253,630.912 C333.871,627.79 334.327,627.205 338.288,627.018" fill="#FFEBCA"/>
    <path d="M562.198,768.909 C561.805,767.639 559.278,768.304 559.776,766.434 C559.988,765.638 561.222,765.723 561.954,766.015 C563.856,766.775 563.299,767.828 562.144,768.862 L562.198,768.909" fill="#D8EDC2"/>
    <path d="M557.794,755.204 C558.772,755.971 559.75,756.737 560.728,757.503 C558.534,758.425 557.975,757.037 557.794,755.204" fill="#DEEFCB"/>
    <path d="M346.032,667.764 C345.564,666.556 345.461,665.202 347.071,665.162 C348.906,665.116 347.828,666.937 348.272,667.834 C347.526,667.81 346.779,667.787 346.032,667.764" fill="#FFECCB"/>
    <path d="M562.144,768.862 C562.421,769.916 562.698,770.97 562.976,772.024 C561.272,771.257 559.157,770.551 562.198,768.909 L562.144,768.862" fill="#D8EDC2"/>
    <path d="M558.988,744.08 C558.87,745.665 558.516,746.212 557.778,746.099 C557.519,746.06 557.234,745.408 557.18,745.006 C557.105,744.447 556.999,743.604 557.834,743.595 C558.398,743.589 558.968,744.07 558.988,744.08" fill="#D0E8B4"/>
    <path d="M326.699,940.934 C308.952,942.712 289.848,921.016 289.786,904.755 C289.717,886.501 309.427,871.633 326.35,871.812 C342.865,871.986 359.483,887.757 359.127,903.815 C358.662,924.772 346.027,942.038 326.699,940.934" fill="#FFD9B4"/>
    <path d="M351.304,845.399 C351.38,843.961 351.376,843.627 351.418,843.298 C352.239,836.878 353.516,830.542 360.176,827.564 C365.411,825.224 369.929,827.547 373.776,831.114 C379.894,836.788 383.22,843.529 380.85,852.083 C378.95,858.939 373.569,863.652 367.593,863.866 C360.971,864.103 355.233,859.798 352.911,852.581 C352.054,849.918 351.674,847.102 351.304,845.399" fill="#6E4100"/>
    <path d="M310.224,778.536 C310.668,770.884 315.674,764.081 322.206,762.296 C325.451,761.409 328.322,761.767 329.521,765.405 C330.626,768.758 328.935,770.926 325.789,771.821 C321.658,772.996 320.592,776.22 320.266,779.804 C319.95,783.261 318.279,785.187 314.887,784.925 C311.12,784.634 310.053,781.926 310.224,778.536" fill="#6F4300"/>
    <path d="M533.025,700.988 C534.64,702.373 536.351,703.666 537.829,705.185 C538.491,705.866 538.708,707.124 537.554,707.716 C536.663,708.173 536.089,707.367 535.599,706.669 C534.473,705.068 533.32,703.486 532.179,701.897 C531.675,700.862 532.193,700.779 533.025,700.988" fill="#F9FCF5"/>
    <path d="M544.192,723.885 C541.573,721.954 543.069,718.053 540.254,716.216 C544.091,717.476 544.091,717.476 544.156,723.915 C544.155,723.915 544.192,723.885 544.192,723.885" fill="#FEFEFE"/>
    <path d="M533.025,700.988 C532.743,701.291 532.461,701.594 532.179,701.897 C530.162,700.163 529.943,697.214 526.505,695.033 C531.126,695.891 532.477,698.061 533.025,700.988" fill="#E7F4DA"/>
    <path d="M400.316,714.379 C398.962,713.99 397.055,714.585 396.58,712.562 C396.515,712.285 397.085,711.562 397.384,711.547 C399.115,711.465 399.613,712.985 400.316,714.379" fill="#DAEEC5"/>
    <path d="M493.827,669.273 C492.011,671.507 490.459,671.202 488.669,670.327 C489.961,668.199 491.647,668.808 493.827,669.273" fill="#EDF6E3"/>
    <path d="M381.722,710.335 C382.332,708.749 383.171,707.68 385.028,708.526 C385.268,708.635 385.58,709.18 385.506,709.291 C384.586,710.688 383.376,711.214 381.722,710.335" fill="#E6F3D9"/>
    <path d="M506.103,674.593 C507.111,674.556 507.418,675.138 507.579,675.778 C507.797,676.642 507.264,676.978 506.518,676.885 C505.816,676.797 505.272,676.314 505.369,675.575 C505.419,675.188 505.895,674.856 506.103,674.593" fill="#E2F1D2"/>
    <path d="M455.334,800.018 C455.34,800.858 456.783,802.126 455.454,802.401 C453.849,802.734 454.374,800.906 454.146,799.926 C454.542,799.957 454.938,799.988 455.334,800.018" fill="#D3EAB9"/>
    <path d="M893.875,499.911 C909.098,500.199 924.863,499.312 940.513,496.946 C944.746,496.307 945.395,497.462 944.723,501.506 C942.829,512.888 940.279,523.996 934.084,533.918 C920.563,555.571 894.454,555.866 880.54,534.517 C874.093,524.624 870.797,513.513 868.256,502.114 C867.593,499.142 868.982,498.812 871.352,499.086 C878.635,499.927 885.952,499.974 893.875,499.911" fill="#FEFEFE"/>
  </g>
</svg>
