<?xml version="1.0" encoding="UTF-8"?>
<!DOCTYPE svg PUBLIC "-//W3C//DTD SVG 1.1//EN" "http://www.w3.org/Graphics/SVG/1.1/DTD/svg11.dtd">
<svg version="1.1" xmlns="http://www.w3.org/2000/svg" xmlns:xlink="http://www.w3.org/1999/xlink" x="0" y="0" width="458" height="552" viewBox="0, 0, 458, 552">
  <defs>
    <linearGradient id="Gradient_1" gradientUnits="userSpaceOnUse" x1="288.356" y1="101.92" x2="290.223" y2="101.92">
      <stop offset="0" stop-color="#FCD11F"/>
      <stop offset="1" stop-color="#FBCF4C"/>
    </linearGradient>
    <linearGradient id="Gradient_2" gradientUnits="userSpaceOnUse" x1="490.824" y1="214.229" x2="492.444" y2="214.3">
      <stop offset="0" stop-color="#E46F6C"/>
      <stop offset="1" stop-color="#DF5262"/>
    </linearGradient>
    <linearGradient id="Gradient_3" gradientUnits="userSpaceOnUse" x1="423.697" y1="217.989" x2="425.263" y2="218.251">
      <stop offset="0" stop-color="#E46F6C"/>
      <stop offset="1" stop-color="#DF5262"/>
    </linearGradient>
    <linearGradient id="Gradient_4" gradientUnits="userSpaceOnUse" x1="360.52" y1="217.859" x2="361.046" y2="217.179">
      <stop offset="0" stop-color="#E46F6C"/>
      <stop offset="1" stop-color="#DF5262"/>
    </linearGradient>
    <linearGradient id="Gradient_5" gradientUnits="userSpaceOnUse" x1="365.543" y1="285.699" x2="366.069" y2="285.02">
      <stop offset="0" stop-color="#E46F6C"/>
      <stop offset="1" stop-color="#DF5262"/>
    </linearGradient>
    <linearGradient id="Gradient_6" gradientUnits="userSpaceOnUse" x1="368.53" y1="343.571" x2="369.054" y2="342.893">
      <stop offset="0" stop-color="#E46F6C"/>
      <stop offset="1" stop-color="#DF5262"/>
    </linearGradient>
    <linearGradient id="Gradient_7" gradientUnits="userSpaceOnUse" x1="2.214" y1="189.069" x2="302.761" y2="189.069">
      <stop offset="0" stop-color="#91D1DD"/>
      <stop offset="1" stop-color="#4F99C7"/>
    </linearGradient>
    <linearGradient id="Gradient_8" gradientUnits="userSpaceOnUse" x1="3.523" y1="223.209" x2="302.136" y2="223.209">
      <stop offset="0" stop-color="#BFC0BF"/>
      <stop offset="1" stop-color="#FFFFFE"/>
    </linearGradient>
    <linearGradient id="Gradient_9" gradientUnits="userSpaceOnUse" x1="215.955" y1="63.995" x2="383.104" y2="75.129">
      <stop offset="0" stop-color="#8F5035"/>
      <stop offset="1" stop-color="#995B35"/>
    </linearGradient>
    <linearGradient id="Gradient_10" gradientUnits="userSpaceOnUse" x1="243.713" y1="217.068" x2="266.396" y2="225.957">
      <stop offset="0" stop-color="#F6C8AA"/>
      <stop offset="1" stop-color="#F2B580"/>
    </linearGradient>
    <linearGradient id="Gradient_11" gradientUnits="userSpaceOnUse" x1="264.159" y1="229.077" x2="286.826" y2="237.96">
      <stop offset="0" stop-color="#F6C8AA"/>
      <stop offset="1" stop-color="#F2B580"/>
    </linearGradient>
    <linearGradient id="Gradient_12" gradientUnits="userSpaceOnUse" x1="255.851" y1="212.043" x2="244.571" y2="238.007">
      <stop offset="0" stop-color="#F6C8AA"/>
      <stop offset="1" stop-color="#F2B580"/>
    </linearGradient>
    <linearGradient id="Gradient_13" gradientUnits="userSpaceOnUse" x1="300.032" y1="146.891" x2="286.726" y2="222.952">
      <stop offset="0" stop-color="#EEAAB5"/>
      <stop offset="1" stop-color="#E46C83"/>
    </linearGradient>
    <linearGradient id="Gradient_14" gradientUnits="userSpaceOnUse" x1="251.284" y1="127.604" x2="336.16" y2="130.89">
      <stop offset="0" stop-color="#EEAAB5"/>
      <stop offset="1" stop-color="#E46C83"/>
    </linearGradient>
    <linearGradient id="Gradient_15" gradientUnits="userSpaceOnUse" x1="224.486" y1="189.854" x2="273.043" y2="187.988">
      <stop offset="0" stop-color="#D8232A"/>
      <stop offset="1" stop-color="#DF523F"/>
    </linearGradient>
    <linearGradient id="Gradient_16" gradientUnits="userSpaceOnUse" x1="347.5" y1="203.779" x2="356.892" y2="228.409">
      <stop offset="0" stop-color="#F6C8AA"/>
      <stop offset="1" stop-color="#F2B580"/>
    </linearGradient>
    <linearGradient id="Gradient_17" gradientUnits="userSpaceOnUse" x1="313.02" y1="141.398" x2="321.566" y2="207.967">
      <stop offset="0" stop-color="#50733F"/>
      <stop offset="1" stop-color="#3A503A"/>
    </linearGradient>
    <linearGradient id="Gradient_18" gradientUnits="userSpaceOnUse" x1="248.736" y1="197.48" x2="327.485" y2="194.454">
      <stop offset="0" stop-color="#D8232A"/>
      <stop offset="1" stop-color="#DF523F"/>
    </linearGradient>
    <linearGradient id="Gradient_19" gradientUnits="userSpaceOnUse" x1="378.845" y1="84.396" x2="338.607" y2="85.147">
      <stop offset="0" stop-color="#F6C8AA"/>
      <stop offset="1" stop-color="#F2B580"/>
    </linearGradient>
    <linearGradient id="Gradient_20" gradientUnits="userSpaceOnUse" x1="248.396" y1="86.827" x2="208.158" y2="87.579">
      <stop offset="0" stop-color="#F6C8AA"/>
      <stop offset="1" stop-color="#F2B580"/>
    </linearGradient>
    <linearGradient id="Gradient_21" gradientUnits="userSpaceOnUse" x1="212.575" y1="140.238" x2="274.517" y2="204.878">
      <stop offset="0" stop-color="#F6C8AA"/>
      <stop offset="1" stop-color="#F2B580"/>
    </linearGradient>
    <linearGradient id="Gradient_22" gradientUnits="userSpaceOnUse" x1="379.545" y1="6.905" x2="218.923" y2="-7.86">
      <stop offset="0" stop-color="#7A4836"/>
      <stop offset="1" stop-color="#4D3E36"/>
    </linearGradient>
    <linearGradient id="Gradient_23" gradientUnits="userSpaceOnUse" x1="217.814" y1="242.903" x2="244.94" y2="236.478">
      <stop offset="0" stop-color="#50504F"/>
      <stop offset="1" stop-color="#313231"/>
    </linearGradient>
    <linearGradient id="Gradient_24" gradientUnits="userSpaceOnUse" x1="243.027" y1="244.555" x2="272.771" y2="238.842">
      <stop offset="0" stop-color="#50504F"/>
      <stop offset="1" stop-color="#313231"/>
    </linearGradient>
    <linearGradient id="Gradient_25" gradientUnits="userSpaceOnUse" x1="135.379" y1="188.326" x2="322.889" y2="188.326">
      <stop offset="0" stop-color="#91D1DD"/>
      <stop offset="1" stop-color="#4F99C7"/>
    </linearGradient>
    <linearGradient id="Gradient_26" gradientUnits="userSpaceOnUse" x1="442.127" y1="113.483" x2="444.153" y2="113.483">
      <stop offset="0" stop-color="#FCD11F"/>
      <stop offset="1" stop-color="#FBCF4C"/>
    </linearGradient>
    <linearGradient id="Gradient_27" gradientUnits="userSpaceOnUse" x1="89.01" y1="421.365" x2="112.083" y2="431.444">
      <stop offset="0" stop-color="#F6C8AA"/>
      <stop offset="1" stop-color="#F2B580"/>
    </linearGradient>
    <linearGradient id="Gradient_28" gradientUnits="userSpaceOnUse" x1="93.094" y1="472.827" x2="88.274" y2="472.592">
      <stop offset="0" stop-color="#BFC0BF"/>
      <stop offset="1" stop-color="#FFFFFE"/>
    </linearGradient>
    <linearGradient id="Gradient_29" gradientUnits="userSpaceOnUse" x1="73.617" y1="400.856" x2="129.961" y2="400.856">
      <stop offset="0" stop-color="#7595C0"/>
      <stop offset="1" stop-color="#2A5293"/>
    </linearGradient>
    <linearGradient id="Gradient_30" gradientUnits="userSpaceOnUse" x1="124.787" y1="434.369" x2="147.865" y2="444.451">
      <stop offset="0" stop-color="#F6C8AA"/>
      <stop offset="1" stop-color="#F2B580"/>
    </linearGradient>
    <linearGradient id="Gradient_31" gradientUnits="userSpaceOnUse" x1="128.862" y1="485.832" x2="124.045" y2="485.596">
      <stop offset="0" stop-color="#BFC0BF"/>
      <stop offset="1" stop-color="#FFFFFE"/>
    </linearGradient>
    <linearGradient id="Gradient_32" gradientUnits="userSpaceOnUse" x1="106.444" y1="401.725" x2="181.153" y2="401.725">
      <stop offset="0" stop-color="#7595C0"/>
      <stop offset="1" stop-color="#2A5293"/>
    </linearGradient>
    <linearGradient id="Gradient_33" gradientUnits="userSpaceOnUse" x1="90.479" y1="393.83" x2="68.538" y2="413.231">
      <stop offset="0" stop-color="#F6C8AA"/>
      <stop offset="1" stop-color="#F2B580"/>
    </linearGradient>
    <linearGradient id="Gradient_34" gradientUnits="userSpaceOnUse" x1="160.241" y1="352.425" x2="117.345" y2="413.786">
      <stop offset="0" stop-color="#50733F"/>
      <stop offset="1" stop-color="#3A503A"/>
    </linearGradient>
    <linearGradient id="Gradient_35" gradientUnits="userSpaceOnUse" x1="106.704" y1="326.174" x2="193.995" y2="339.591">
      <stop offset="0" stop-color="#50733F"/>
      <stop offset="1" stop-color="#3A503A"/>
    </linearGradient>
    <linearGradient id="Gradient_36" gradientUnits="userSpaceOnUse" x1="50.712" y1="280.762" x2="92.467" y2="279.506">
      <stop offset="0" stop-color="#F6C8AA"/>
      <stop offset="1" stop-color="#F2B580"/>
    </linearGradient>
    <linearGradient id="Gradient_37" gradientUnits="userSpaceOnUse" x1="186.084" y1="276.684" x2="227.858" y2="275.427">
      <stop offset="0" stop-color="#F6C8AA"/>
      <stop offset="1" stop-color="#F2B580"/>
    </linearGradient>
    <linearGradient id="Gradient_38" gradientUnits="userSpaceOnUse" x1="225.889" y1="330.119" x2="164.923" y2="400.287">
      <stop offset="0" stop-color="#F6C8AA"/>
      <stop offset="1" stop-color="#F2B580"/>
    </linearGradient>
    <linearGradient id="Gradient_39" gradientUnits="userSpaceOnUse" x1="55.937" y1="188.787" x2="222.503" y2="183.777">
      <stop offset="0" stop-color="#8F5035"/>
      <stop offset="1" stop-color="#995B35"/>
    </linearGradient>
    <linearGradient id="Gradient_40" gradientUnits="userSpaceOnUse" x1="199.323" y1="411.769" x2="208.055" y2="437.606">
      <stop offset="0" stop-color="#F6C8AA"/>
      <stop offset="1" stop-color="#F2B580"/>
    </linearGradient>
    <linearGradient id="Gradient_41" gradientUnits="userSpaceOnUse" x1="166.154" y1="345.872" x2="172.348" y2="415.065">
      <stop offset="0" stop-color="#50733F"/>
      <stop offset="1" stop-color="#3A503A"/>
    </linearGradient>
    <linearGradient id="Gradient_42" gradientUnits="userSpaceOnUse" x1="331.394" y1="153.356" x2="391.062" y2="153.356">
      <stop offset="0" stop-color="#91D1DD"/>
      <stop offset="1" stop-color="#4F99C7"/>
    </linearGradient>
  </defs>
  <g id="Layer_1">
    <path d="M261.082,211.967 C261.082,211.967 271.472,103.92 205.887,118.91 C184.5,123.793 169.656,145.648 168.309,166.957 C167.723,176.293 175.769,239.984 169.91,241.908 L261.082,211.967 z" fill="url(#Gradient_1)"/>
    <path d="M455.633,480.326 C452.918,464.154 452.586,458.988 449.734,442.846 C441.375,395.482 433.015,348.08 424.637,300.687 C421.199,281.176 417.742,261.664 414.305,242.152 C413.387,236.947 413.308,229.779 411.258,224.945 C407.469,215.922 394.344,211.967 387.41,222.64 C384.285,227.484 386.512,233.627 387.371,239.076 C388.992,249.242 390.984,259.369 392.762,269.525 C406.023,344.701 416.648,408.91 429.91,484.096 C430.926,490.004 440.906,493.236 446.785,492.465 C452.644,491.703 456.629,486.234 455.633,480.326 z" fill="url(#Gradient_2)"/>
    <path d="M360.476,457.142 C359.695,441.254 358.133,449.555 357.215,433.637 C354.48,386.928 351.746,340.238 349.012,293.529 C347.898,274.31 346.765,255.072 345.633,235.853 C345.34,230.736 346.062,223.822 344.656,218.89 C342.019,209.74 329.949,204.291 322.156,213.754 C318.621,218.031 320.066,224.203 320.281,229.564 C320.691,239.574 321.453,249.574 322.039,259.574 C326.355,333.666 331.179,383.519 335.515,457.611 C335.808,463.422 345.008,467.787 350.691,467.767 C356.375,467.738 360.769,462.953 360.476,457.142 z" fill="url(#Gradient_3)"/>
    <path d="M414.715,275.57 C405.73,272.025 396.648,268.666 387.625,265.228 C361.101,255.131 415.34,275.199 388.816,265.072 C377.898,260.931 366.98,256.762 356.062,252.611 C353.133,251.498 349.734,249.105 346.434,248.92 C340.281,248.588 331.98,256.703 333.621,265.336 C334.363,269.242 338.367,269.73 341.355,270.961 C346.961,273.256 352.742,275.287 358.406,277.445 C400.457,293.5 361.785,279.33 403.855,295.375 C407.117,296.674 413.582,290.56 416.082,286.088 C418.621,281.586 417.996,276.849 414.715,275.57 z" fill="url(#Gradient_4)"/>
    <path d="M420.965,344.34 C411.824,340.687 402.605,337.24 393.445,333.666 C366.512,323.217 421.57,343.988 394.637,333.549 C383.562,329.242 372.469,324.945 361.375,320.648 C358.426,319.486 354.949,317.045 351.609,316.84 C345.379,316.459 337.039,324.535 338.797,333.236 C339.578,337.182 343.621,337.719 346.668,338.988 C352.352,341.361 358.211,343.451 363.973,345.697 C406.687,362.26 367.41,347.641 410.125,364.193 C413.465,365.541 419.93,359.457 422.449,354.955 C424.949,350.453 424.285,345.687 420.965,344.34 z" fill="url(#Gradient_5)"/>
    <path d="M428.308,405.541 C418.68,401.469 408.973,397.601 399.305,393.637 C370.906,381.986 428.953,405.189 400.535,393.558 C388.855,388.744 377.176,383.949 365.477,379.154 C362.351,377.865 358.66,375.268 355.164,374.916 C348.68,374.31 340.223,382.289 342.312,391.283 C343.23,395.375 347.488,396.058 350.691,397.455 C356.707,400.082 362.879,402.445 368.953,404.945 C414.012,423.422 372.605,407.055 417.644,425.531 C421.16,427.006 427.723,420.99 430.203,416.469 C432.664,411.967 431.824,407.025 428.308,405.541 z" fill="url(#Gradient_6)"/>
    <path d="M171.922,191.596 C170.086,191.068 168.172,191.439 166.629,193.324 C164.5,195.971 163.289,200.58 161.824,203.656 C160.047,207.435 158.25,211.234 156.316,214.935 C141.863,242.514 50.34,418.109 44.519,429.223 L2.215,460.961 L3.68,502.885 L120.965,535.746 L164.48,488.48 L302.762,244.467 L179.597,225.209 C178.055,225.17 178.387,199.232 177.312,196.732 C176.316,194.379 174.187,192.26 171.922,191.596 z" fill="url(#Gradient_7)"/>
    <path d="M186.023,498.109 L302.137,239.603 L179.597,225.209 L58.25,458.5 L3.523,503.109 L141.375,550.307 L182.781,502.846 L183.66,503.021 L185.125,499.965 L186.551,498.236 L186.023,498.109 z" fill="url(#Gradient_8)"/>
    <path d="M224.422,76.156 C215.926,95.707 206.648,124.594 215.867,144.418 C219.695,146.195 220.809,142.992 223.973,143.178 C227.332,143.402 228.66,145.346 231.414,147.445 C243.523,156.644 252.996,145.824 266.199,149.291 C273.738,151.273 282.41,154.486 290.281,154.447 C297.469,154.398 301.707,149.984 308.074,147.426 C313.055,145.463 318.152,146.215 323.601,147.767 C334.285,150.873 341.863,158.607 350.867,147.602 C360.359,147.162 361.043,162.592 370.965,153.217 C374.305,150.053 376.336,145.795 377.644,141.429 C380.008,133.558 379.715,124.935 378.816,116.859 C378.309,112.152 372.391,76.42 368.641,76.41 C368.641,76.42 224.422,76.156 224.422,76.156 z" fill="url(#Gradient_9)"/>
    <path d="M251.238,264.701 L228.465,255.98 L243.289,219.262 L266.082,227.982 L251.238,264.701 z" fill="url(#Gradient_10)"/>
    <path d="M271.687,276.703 L248.914,267.982 L263.738,231.264 L286.512,239.984 L271.687,276.703 z" fill="url(#Gradient_11)"/>
    <path d="M227.039,230.922 C218.504,226.644 213.797,217.123 216.531,209.652 C219.285,202.182 228.445,199.594 236.98,203.881 C245.515,208.158 250.203,217.67 247.449,225.141 C244.734,232.611 235.554,235.189 227.039,230.922 z" fill="url(#Gradient_12)"/>
    <path d="M282.351,176.703 C281.609,177.016 280.887,177.347 280.203,177.68 C275.633,180.004 270.672,182.152 266.668,185.385 C263.133,188.236 259.578,192.338 257.332,196.332 C253.992,202.299 252.957,210.492 248.269,215.687 C246.258,217.894 230.144,207.689 228.035,206.518 C213.894,198.578 225.613,192.455 232.84,181.976 C243.777,166.059 267.019,126.498 289.871,150.053 C293.758,154.086 295.769,159.652 294.656,165.209 C293.308,171.82 288.152,174.271 282.351,176.703 z" fill="url(#Gradient_13)"/>
    <path d="M328.875,217.435 C326.844,217.992 324.285,217.445 322.156,217.328 C312.703,216.752 303.23,216.224 293.777,215.717 C290.535,215.56 248.211,212.396 247.918,214.564 C247.937,214.554 256.414,134.642 256.453,134.379 C256.472,134.184 305.203,136.322 310.105,135.463 C314.91,134.613 319.851,132.26 324.148,135.57 C330.105,140.15 331.727,152.387 332.351,159.066 C333.484,171.517 333.367,182.738 333.347,195.258 C333.328,199.457 333.836,212.533 331.179,215.922 C330.555,216.732 329.754,217.182 328.875,217.435 z" fill="url(#Gradient_14)"/>
    <path d="M273.543,212.25 C271.98,205.736 267.586,199.867 261.004,198.158 C235.047,191.449 228.953,251.713 226.844,251.234 C237.332,253.656 241.922,260.98 252.078,262.103 C251.238,245.971 269.461,237.006 273.445,222.953 C274.383,219.574 274.383,215.824 273.543,212.25 z" fill="url(#Gradient_15)"/>
    <path d="M373.621,222.514 C381.726,218.91 386.531,210.258 384.285,203.168 C382.059,196.127 373.66,193.324 365.515,196.937 C357.391,200.541 352.644,209.222 354.851,216.283 C357.098,223.334 365.496,226.137 373.621,222.514 z" fill="url(#Gradient_16)"/>
    <path d="M326.433,167.963 C333.269,175.658 343.562,182.445 346.883,189.057 C349.754,194.76 350.359,202.435 354.519,207.455 C355.711,208.891 376.219,198.744 380.34,196.293 C378.836,189.769 376.902,183.305 374.597,176.996 C371.883,169.584 364.891,162.865 359.539,157.279 C352.644,150.082 336.258,131.283 325.867,142.22 C316.414,152.123 319.793,160.482 326.433,167.963 z" fill="url(#Gradient_17)"/>
    <path d="M326.199,221.283 C328.387,217.406 329.344,213.353 326.492,210.531 C323.816,207.865 306.746,211.332 306.551,210.433 C304.012,199.037 291.804,197.826 282.273,200.414 C271.824,203.217 268.269,208.734 264.051,217.992 C262.273,221.908 246.883,257.894 252.078,258.988 C265.066,261.703 269.129,272.143 282.371,270.648 C291.375,254.008 306.238,244.672 318.562,231.146 C320.613,228.891 324.012,225.15 326.199,221.283 z" fill="url(#Gradient_18)"/>
    <path d="M338.289,107.66 C338.504,118.978 347.859,127.992 359.148,127.768 C370.496,127.562 379.48,118.217 379.265,106.908 C379.051,95.57 369.715,86.566 358.406,86.801 C347.078,86.996 338.094,96.342 338.289,107.66 z" fill="url(#Gradient_19)"/>
    <path d="M207.84,110.092 C208.055,121.42 217.39,130.424 228.719,130.199 C240.027,129.994 249.031,120.648 248.816,109.34 C248.621,98.021 239.266,88.998 227.937,89.232 C216.629,89.437 207.644,98.773 207.84,110.092 z" fill="url(#Gradient_20)"/>
    <path d="M219.891,95.189 C220.847,145.98 253.953,159.086 294.48,158.334 C335.027,157.582 367.625,143.226 366.668,92.435 C365.926,52.601 332.449,20.902 291.941,21.654 C251.414,22.406 219.148,55.326 219.891,95.189 z" fill="url(#Gradient_21)"/>
    <path d="M309.129,128.285 C309.265,135.824 316.101,141.791 324.422,141.635 C332.703,141.469 339.324,135.248 339.207,127.689 C339.07,120.18 332.215,114.203 323.894,114.359 C315.594,114.515 308.992,120.746 309.129,128.285" fill="#EA908E"/>
    <path d="M214.226,55.707 C216.922,47.885 221.121,40.258 225.242,34.672 C238.387,16.918 261.687,2.611 283.504,2.094 C285.848,2.015 288.152,2.143 290.418,2.328 C292.723,2.015 295.008,1.527 297.332,1.732 C356.902,6.889 367.019,51.508 367.273,52.133 C371.473,62.65 375.027,85.043 368.797,95.375 C370.652,92.299 338.992,68.803 335.086,66.625 C338.543,71.518 345.34,77.65 349.598,82.67 C341.004,83.812 330.828,79.799 322.937,76.469 C315.789,73.49 307.879,70.375 301.687,65.853 C301.512,69.613 305.32,75.316 307.859,77.689 C299.031,77.191 287.937,71.615 280.144,67.562 C276.492,65.678 273.016,63.461 269.441,61.4 C266.785,59.857 263.894,57.367 260.652,56.674 C259.637,56.478 252.664,75.639 237.801,85.472 C236.453,82.406 233.816,75.394 233.816,75.394 C230.496,77.65 221.219,98.334 219.324,96.957 C213.054,92.377 211.609,79.047 211.355,72.094 C211.16,66.986 212.332,61.303 214.226,55.707 z" fill="url(#Gradient_22)"/>
    <path d="M225.379,124.516 C227.566,119.574 232.84,116.058 239.07,115.951 C247.371,115.795 254.207,121.762 254.344,129.291 C254.48,136.82 247.859,143.06 239.578,143.207 C239.266,143.207 238.973,143.207 238.68,143.197 C233.113,138.383 228.582,132.24 225.379,124.516" fill="#EA908E"/>
    <path d="M287.84,120.326 C285.75,114.818 282.078,115.365 280.281,120.502" fill-opacity="0" stroke="#1A1919" stroke-width="1.509" stroke-linecap="round" stroke-linejoin="round"/>
    <path d="M309.637,111.234 C309.812,114.789 312.527,117.582 315.711,117.435 C318.855,117.299 321.297,114.271 321.141,110.697 C320.965,107.143 318.269,104.359 315.086,104.515 C311.941,104.652 309.48,107.66 309.637,111.234" fill="#1A1919"/>
    <path d="M246.297,114.545 C246.707,118.109 249.578,120.678 252.742,120.306 C255.906,119.965 258.133,116.801 257.703,113.226 C257.312,109.681 254.402,107.084 251.258,107.465 C248.094,107.826 245.887,111 246.297,114.545" fill="#1A1919"/>
    <path d="M305.926,128.637 L264.402,127.806 C264.403,127.806 264.891,148.598 282.918,150.766 C282.918,150.766 301.844,152.953 305.926,128.637" fill="#E2635D"/>
    <path d="M249.773,256.879 C252.195,267.045 248.055,276.742 240.574,278.5 C233.074,280.287 225.047,273.48 222.644,263.295 C220.223,253.129 224.344,243.412 231.844,241.654 C239.344,239.867 247.371,246.684 249.773,256.879 z" fill="url(#Gradient_23)"/>
    <path d="M277.059,261.166 C279.207,272.299 274.285,282.621 266.082,284.203 C257.859,285.795 249.461,278.031 247.312,266.869 C245.184,255.726 250.105,245.424 258.328,243.842 C266.531,242.25 274.929,250.014 277.059,261.166 z" fill="url(#Gradient_24)"/>
    <path d="M319.383,248.9 L195.945,505.932 L141.453,550.316 L141.375,550.307 L135.379,501.186 L176.453,469.447 C181.824,458.852 225.535,363.578 241.727,331.615 C256.512,302.474 271.277,273.334 286.062,244.183 C289.637,237.123 308.348,192.631 317.058,191.674 C329.441,190.326 318.172,232.465 318.68,239.486 C318.836,241.43 320.301,247.074 319.383,248.9 z" fill="url(#Gradient_25)"/>
    <path d="M412.547,223.51 C412.547,223.51 423.777,115.482 352.683,130.463 C329.5,135.355 313.387,157.191 311.922,178.519 C311.277,187.846 317.137,247.621 317.41,252.582 C321.941,251.43 412.547,223.51 412.547,223.51 z" fill="url(#Gradient_26)"/>
    <path d="M94.93,470.844 L71.726,460.932 L88.523,423.558 L111.707,433.461 L94.93,470.844 z" fill="url(#Gradient_27)"/>
    <path d="M94.891,470.912 L71.726,460.932 L80.535,441.478 L103.719,451.439 L94.891,470.912 z" fill="url(#Gradient_28)"/>
    <path d="M96.609,466.059 C93.836,465.121 76.199,462.25 71.863,459.281 C63.68,453.656 47.898,452.924 49.656,466.879 C49.969,469.408 77.019,481.547 81.707,482.26 C84.539,482.689 88.308,484.311 90.984,482.807 C94.871,480.609 98.211,474.174 98.758,469.955 C99.051,467.679 98.113,466.576 96.609,466.059" fill="#2366A3"/>
    <path d="M94.832,414.154 C81.746,414.496 74.852,437.064 72.215,446.498 C82.957,449.418 95.008,454.73 105.476,456.303 C105.242,439.974 124.5,435.453 129.793,420.932 C136.375,402.855 103.738,405.668 94.832,414.154 z" fill="url(#Gradient_29)"/>
    <path d="M130.691,483.871 L107.488,473.969 L124.285,436.566 L147.488,446.469 L130.691,483.871 z" fill="url(#Gradient_30)"/>
    <path d="M130.691,483.92 L107.508,473.969 L116.297,454.496 L139.48,464.447 L130.691,483.92 z" fill="url(#Gradient_31)"/>
    <path d="M132.391,479.057 C129.617,478.148 111.98,475.277 107.644,472.299 C99.441,466.674 83.66,465.941 85.418,479.887 C85.75,482.426 112.762,494.564 117.488,495.287 C120.32,495.697 124.051,497.318 126.746,495.814 C130.633,493.637 133.973,487.182 134.519,482.972 C134.832,480.687 133.894,479.574 132.391,479.057" fill="#2366A3"/>
    <path d="M137.117,410.902 C122.371,403.724 102.547,444.711 104.754,456.264 C118.055,459.574 131.824,465.941 145.594,464.916 C152.84,452.641 148.269,453.187 163.113,448.637 C171.922,445.922 179.676,442.699 181.57,432.621 C186.824,404.975 150.34,411.977 132.781,411.977 z" fill="url(#Gradient_32)"/>
    <path d="M55.262,398.978 C49.129,391.224 48.894,380.248 54.734,374.457 C60.555,368.656 70.281,370.228 76.414,377.972 C82.547,385.736 82.781,396.703 76.941,402.504 C71.102,408.295 61.394,406.713 55.262,398.978 z" fill="url(#Gradient_33)"/>
    <path d="M130.887,372.377 C130.047,372.347 129.227,372.318 128.445,372.347 C123.152,372.523 117.527,372.357 112.352,373.617 C107.801,374.769 102.664,377.045 98.836,379.828 C93.074,383.93 88.504,391.195 81.844,393.978 C79.91,394.809 64.969,374.232 62.176,369.701 C67,364.066 72.254,358.676 77.742,353.676 C84.265,347.767 94.598,344.75 102.762,342.016 C118.894,336.596 141.922,328.49 149.597,350.678 C151.472,356.137 150.926,362.26 147.449,366.967 C143.289,372.582 137.371,372.621 130.887,372.377 z" fill="url(#Gradient_34)"/>
    <path d="M181.179,428.383 C178.875,428.695 176.16,427.806 173.836,427.406 C163.582,425.609 153.289,423.861 142.996,422.133 C139.5,421.547 93.602,412.894 93.035,415.101 C93.035,415.082 111.492,333.978 111.57,333.715 C111.609,333.5 164.637,341.918 170.086,341.654 C175.418,341.4 181.101,339.633 185.437,343.578 C191.414,349.037 191.785,361.82 191.687,368.773 C191.473,381.732 190.066,393.246 188.601,406.137 C188.113,410.443 187.156,423.939 183.875,427.113 C183.113,427.865 182.176,428.236 181.179,428.383 z" fill="url(#Gradient_35)"/>
    <path d="M93.933,302.758 C94.266,314.506 85.047,324.281 73.308,324.662 C61.57,325.004 51.746,315.785 51.414,304.037 C51.043,292.289 60.281,282.474 72.019,282.123 C83.777,281.781 93.582,291.01 93.933,302.758 z" fill="url(#Gradient_36)"/>
    <path d="M229.324,298.666 C229.676,310.404 220.457,320.219 208.699,320.58 C196.961,320.941 187.156,311.693 186.785,299.955 C186.433,288.217 195.672,278.402 207.41,278.06 C219.168,277.689 228.973,286.928 229.324,298.666 z" fill="url(#Gradient_37)"/>
    <path d="M216.082,283.803 C217.664,336.537 183.992,351.83 141.922,353.099 C99.851,354.359 65.32,341.127 63.738,288.392 C62.488,247.025 95.594,212.474 137.644,211.215 C179.715,209.935 214.832,242.455 216.082,283.803 z" fill="url(#Gradient_38)"/>
    <path d="M112.449,323.041 C112.723,331.664 105.945,338.852 97.312,339.125 C88.699,339.379 81.512,332.611 81.238,323.969 C80.984,315.365 87.762,308.158 96.375,307.894 C104.988,307.641 112.195,314.418 112.449,323.041" fill="#EA908E"/>
    <path d="M200.535,320.394 C200.769,329.008 194.012,336.205 185.379,336.459 C176.766,336.742 169.578,329.955 169.305,321.312 C169.051,312.689 175.828,305.502 184.461,305.248 C193.055,304.984 200.262,311.762 200.535,320.394" fill="#EA908E"/>
    <path d="M220.926,238.529 C217.801,230.795 213.152,223.334 208.621,217.933 C194.246,200.736 169.5,187.631 146.844,188.314 C144.441,188.383 142.078,188.627 139.715,188.959 C137.332,188.764 134.93,188.412 132.527,188.754 C71.082,197.328 62.547,242.934 62.312,243.578 C58.406,254.437 55.711,277.26 62.625,287.318 C60.555,284.301 92.312,258.812 96.277,256.4 C92.898,261.527 86.121,268.109 81.941,273.412 C90.887,274.076 101.238,269.447 109.285,265.648 C116.531,262.22 124.598,258.646 130.809,253.715 C131.16,257.514 127.469,263.48 124.949,266.029 C134.07,265.023 145.281,258.783 153.211,254.232 C156.902,252.123 160.418,249.681 164.012,247.396 C166.687,245.697 169.578,243.002 172.918,242.143 C173.953,241.879 182,260.834 197.84,269.926 C199.09,266.762 201.512,259.545 201.512,259.545 C205.066,261.605 215.555,281.976 217.469,280.492 C223.738,275.502 224.656,261.967 224.637,254.926 C224.597,249.76 223.152,244.076 220.926,238.529 z" fill="url(#Gradient_39)"/>
    <path d="M136.805,313.148 C138.523,307.289 142.352,307.553 144.617,312.738" fill-opacity="0" stroke="#1A1919" stroke-width="1.567" stroke-linecap="round" stroke-linejoin="round"/>
    <path d="M113.504,305.443 C113.601,309.144 111.023,312.25 107.723,312.347 C104.422,312.455 101.668,309.516 101.57,305.814 C101.453,302.113 104.031,299.017 107.332,298.929 C110.613,298.812 113.367,301.752 113.504,305.443" fill="#1A1919"/>
    <path d="M179.363,303.881 C179.207,307.582 176.433,310.502 173.113,310.365 C169.832,310.238 167.273,307.123 167.41,303.422 C167.566,299.73 170.34,296.81 173.641,296.928 C176.941,297.054 179.5,300.17 179.363,303.881" fill="#1A1919"/>
    <path d="M119.402,321.713 L162.508,320.414 C162.508,320.414 162.215,341.996 143.543,344.437 C143.543,344.437 123.914,346.908 119.402,321.713" fill="#E2635D"/>
    <path d="M225.535,432.191 C234.09,428.783 239.383,420.013 237.332,412.621 C235.301,405.219 226.727,402.006 218.191,405.424 C209.637,408.842 204.363,417.602 206.375,425.004 C208.406,432.396 217,435.619 225.535,432.191 z" fill="url(#Gradient_40)"/>
    <path d="M178.894,373.881 C185.672,382.133 196.043,389.545 199.207,396.527 C201.941,402.523 202.273,410.502 206.355,415.853 C207.547,417.387 229.168,407.709 233.523,405.336 C232.234,398.539 230.496,391.762 228.367,385.16 C225.848,377.377 218.875,370.131 213.562,364.154 C206.726,356.43 190.516,336.361 179.324,347.23 C169.168,357.113 172.332,365.893 178.894,373.881 z" fill="url(#Gradient_41)"/>
    <path d="M386.414,208.549 L366.121,202.387 L349.539,215.648 L349.109,194.447 L331.394,182.758 L351.453,175.805 L357.058,155.355 L369.871,172.26 L391.062,171.283 L378.953,188.685 L386.414,208.549 z" fill="url(#Gradient_42)"/>
  </g>
</svg>
